<svg class="logo" preserveAspectRatio="xMinYMin meet" viewBox="0 0 180 60" xmlns="http://www.w3.org/2000/svg"><g><path d="M175.182 46.117c-.754-.453-1.322-1.046-1.704-1.777-.382-.731-.573-1.571-.573-2.519v-2.581c0-1.381-.258-2.367-.775-2.959-.516-.592-1.353-.889-2.51-.889-.351 0-.602-.077-.751-.232-.15-.155-.225-.428-.225-.819 0-.391.075-.664.225-.819.15-.155.4-.232.751-.232 1.808 0 3.195.471 4.16 1.414.966.943 1.449 2.393 1.449 4.35v2.612c0 1.123.269 1.973.806 2.55.537.577 1.379.865 2.526.865.351 0 .602.077.751.232.15.155.225.428.225.819 0 .391-.075.664-.225.819-.15.155-.4.232-.751.232-1.147 0-1.988.286-2.526.858-.537.572-.806 1.419-.806 2.542v3.292c0 1.968-.483 3.42-1.449 4.358-.966.938-2.353 1.406-4.16 1.406-.351 0-.602-.077-.751-.232-.15-.155-.225-.428-.225-.819 0-.391.075-.664.225-.819.15-.155.4-.232.751-.232 1.157 0 1.994-.296 2.51-.889.516-.592.775-1.579.775-2.959v-3.261c0-.948.191-1.79.573-2.527.382-.737.95-1.332 1.704-1.785zm-18.165-4.559c0-.361.07-.698.209-1.012.139-.314.328-.59.566-.827.238-.237.514-.425.829-.564.315-.139.653-.209 1.015-.209.362 0 .7.07 1.015.209.315.139.591.327.829.564.238.237.426.513.566.827.139.314.209.652.209 1.012 0 .361-.07.698-.209 1.012-.139.314-.328.59-.566.827-.238.237-.514.425-.829.564-.315.139-.653.209-1.015.209-.362 0-.7-.07-1.015-.209-.315-.139-.591-.327-.829-.564-.238-.237-.426-.513-.566-.827-.139-.314-.209-.652-.209-1.012zm.852 15.917c-.114.216-.261.376-.442.479-.181.103-.374.155-.581.155-.145 0-.279-.023-.403-.07-.124-.046-.232-.113-.325-.201-.093-.088-.158-.193-.194-.317-.036-.124-.039-.268-.008-.433l1.611-7.448c.093-.412.362-.618.806-.618h3.006c.258 0 .431.095.519.286.088.191.059.42-.085.688l-3.905 7.479zm-.832-38.648c0-.361.07-.698.209-1.012.139-.314.328-.59.566-.827.238-.237.514-.425.829-.564.315-.139.653-.209 1.015-.209.362 0 .7.07 1.015.209.315.139.591.327.829.564.238.237.426.513.566.827.139.314.209.652.209 1.012 0 .361-.07.698-.209 1.012-.139.314-.328.59-.566.827-.238.237-.514.425-.829.564-.315.139-.653.209-1.015.209-.362 0-.7-.07-1.015-.209-.315-.139-.591-.327-.829-.564-.238-.237-.426-.513-.566-.827-.139-.314-.209-.652-.209-1.012zm0-9.736c0-.361.07-.698.209-1.012.139-.314.328-.59.566-.827.238-.237.514-.425.829-.564.315-.139.653-.209 1.015-.209.362 0 .7.07 1.015.209.315.139.591.327.829.564.238.237.426.513.566.827.139.314.209.652.209 1.012 0 .361-.07.698-.209 1.012-.139.314-.328.59-.566.827-.238.237-.514.425-.829.564-.315.139-.653.209-1.015.209-.362 0-.7-.07-1.015-.209-.315-.139-.591-.327-.829-.564-.238-.237-.426-.513-.566-.827-.139-.314-.209-.652-.209-1.012zm-97.658 4.559c.754.453 1.322 1.048 1.704 1.785.382.737.573 1.579.573 2.527v3.261c0 .69.062 1.28.186 1.769.124.489.318.889.581 1.198.263.309.604.533 1.023.672.418.139.917.209 1.495.209.351 0 .602.077.751.232.15.155.225.428.225.819 0 .391-.075.664-.225.819-.15.155-.4.232-.751.232-1.808 0-3.195-.469-4.16-1.406-.966-.938-1.449-2.39-1.449-4.358v-3.292c0-1.123-.269-1.97-.806-2.542-.537-.572-1.379-.858-2.526-.858-.351 0-.602-.077-.751-.232-.15-.155-.225-.428-.225-.819 0-.391.075-.664.225-.819.15-.155.4-.232.751-.232 1.147 0 1.988-.288 2.526-.865.537-.577.806-1.427.806-2.55v-2.612c0-1.957.483-3.407 1.449-4.35.966-.943 2.353-1.414 4.16-1.414.351 0 .602.077.751.232.15.155.225.428.225.819 0 .391-.075.664-.225.819-.15.155-.4.232-.751.232-.578 0-1.077.07-1.495.209-.418.139-.759.363-1.023.672-.263.309-.457.708-.581 1.198-.124.489-.186 1.079-.186 1.769v2.581c0 .948-.191 1.787-.573 2.519-.382.731-.95 1.324-1.704 1.777z" class="logo__punctuation"/><path d="M143.625 52.901c0 .361-.085.618-.256.773-.17.155-.473.232-.906.232-.434 0-.736-.077-.906-.232-.17-.155-.256-.412-.256-.773v-3.709c0-.361.085-.618.256-.773.17-.155.473-.232.906-.232.227 0 .403.052.527.155.124.103.227.263.31.479.382.999 1.007 1.723 1.875 2.171.868.448 2.019.672 3.455.672 1.24 0 2.169-.219 2.789-.657.62-.438.93-1.012.93-1.723 0-.371-.119-.667-.356-.889-.238-.221-.558-.399-.961-.533-.455-.155-.981-.268-1.58-.34-.599-.072-1.229-.144-1.89-.216-.661-.072-1.32-.165-1.976-.278-.656-.113-1.263-.278-1.821-.495-.351-.134-.671-.299-.961-.495-.289-.196-.54-.428-.751-.695-.212-.268-.377-.577-.496-.927-.119-.35-.178-.752-.178-1.205 0-.69.139-1.301.418-1.831.279-.531.664-.976 1.154-1.337.491-.361 1.069-.634 1.735-.819.666-.185 1.392-.278 2.177-.278 1.033 0 1.96.152 2.781.456.821.304 1.526.719 2.115 1.244v-.695c0-.361.085-.618.256-.773.17-.155.473-.232.906-.232.434 0 .736.077.906.232.17.155.256.412.256.773v2.936c0 .361-.085.618-.256.773-.17.155-.473.232-.906.232-.351 0-.599-.134-.744-.402-.238-.443-.524-.814-.86-1.113-.336-.299-.723-.536-1.162-.711-.439-.175-.922-.299-1.449-.371-.527-.072-1.09-.108-1.689-.108-1.002 0-1.784.175-2.347.525-.563.35-.844.85-.844 1.499 0 .34.111.613.333.819.222.206.529.371.922.495.434.144.94.25 1.518.317.578.067 1.188.134 1.828.201.64.067 1.286.149 1.937.247s1.255.25 1.813.456c.382.144.733.317 1.054.518.32.201.597.443.829.726.232.283.413.613.542.989.129.376.194.811.194 1.306 0 .69-.132 1.319-.395 1.885-.263.567-.651 1.053-1.162 1.46-.511.407-1.141.721-1.89.943-.749.221-1.604.332-2.564.332-1.126 0-2.11-.155-2.952-.464-.842-.309-1.578-.778-2.208-1.406v.865zm-16.44-5.903c.083 1.556.514 2.722 1.294 3.5s1.893 1.167 3.339 1.167c1.043 0 2.056-.118 3.037-.355.981-.237 1.828-.561 2.541-.974.331-.185.607-.201.829-.046.222.155.4.397.535.726.145.33.176.626.093.889-.083.263-.294.482-.635.657-.403.196-.85.376-1.34.541-.491.165-1.012.306-1.565.425-.553.118-1.123.211-1.712.278-.589.067-1.183.1-1.782.1-1.136 0-2.143-.173-3.021-.518-.878-.345-1.617-.84-2.216-1.484-.599-.644-1.056-1.427-1.371-2.349-.315-.922-.473-1.965-.473-3.129 0-1.123.183-2.145.55-3.067.367-.922.875-1.71 1.526-2.364.651-.654 1.428-1.159 2.332-1.514.904-.355 1.898-.533 2.983-.533 1.147 0 2.159.178 3.037.533.878.355 1.619.847 2.224 1.476.604.628 1.072 1.375 1.402 2.241.331.865.527 1.813.589 2.843 0 .35-.075.598-.225.742-.15.144-.4.216-.751.216h-11.218zm4.943-5.81c-1.291 0-2.347.322-3.169.966-.821.644-1.361 1.538-1.619 2.681h9.467c-.217-1.164-.708-2.063-1.472-2.697-.764-.634-1.834-.95-3.207-.95zm-22.617.201h-1.58c-.351 0-.602-.077-.751-.232-.15-.155-.225-.428-.225-.819 0-.391.075-.664.225-.819.15-.155.4-.232.751-.232h2.774c.351 0 .602.077.751.232.15.155.225.428.225.819v1.854c.682-1.061 1.477-1.867 2.386-2.418.909-.551 1.896-.827 2.96-.827.713 0 1.353.118 1.921.355.568.237 1.051.572 1.449 1.004.398.433.702.961.914 1.584.212.623.318 1.321.318 2.094v7.479h1.271c.351 0 .602.077.751.232.15.155.225.428.225.819 0 .391-.075.664-.225.819-.15.155-.4.232-.751.232h-5.02c-.351 0-.602-.077-.751-.232-.15-.155-.225-.428-.225-.819 0-.391.075-.664.225-.819.15-.155.4-.232.751-.232h1.426v-7.248c0-.443-.052-.847-.155-1.213-.103-.366-.258-.68-.465-.943-.207-.263-.467-.466-.782-.61-.315-.144-.684-.216-1.108-.216-.661 0-1.291.144-1.89.433-.599.288-1.126.69-1.58 1.205-.455.515-.816 1.128-1.085 1.839-.269.711-.403 1.489-.403 2.333v4.42h1.426c.351 0 .602.077.751.232.15.155.225.428.225.819 0 .391-.075.664-.225.819-.15.155-.4.232-.751.232h-5.02c-.351 0-.602-.077-.751-.232-.15-.155-.225-.428-.225-.819 0-.391.075-.664.225-.819.15-.155.4-.232.751-.232h1.271v-10.076zm-12.732 0h-3.92c-.351 0-.602-.077-.751-.232-.15-.155-.225-.428-.225-.819 0-.391.075-.664.225-.819.15-.155.4-.232.751-.232h5.268c.351 0 .602.077.751.232.15.155.225.428.225.819v11.126h4.974c.351 0 .602.077.751.232.15.155.225.428.225.819 0 .391-.075.664-.225.819-.15.155-.4.232-.751.232h-12.148c-.351 0-.602-.077-.751-.232-.15-.155-.225-.428-.225-.819 0-.391.075-.664.225-.819.15-.155.4-.232.751-.232h4.85v-10.076zm2.324-5.872c0 .361-.098.618-.294.773-.196.155-.589.232-1.178.232s-.981-.077-1.178-.232c-.196-.155-.294-.412-.294-.773v-2.009c0-.361.098-.618.294-.773.196-.155.589-.232 1.178-.232s.981.077 1.178.232c.196.155.294.412.294.773v2.009zm-18.532-.124h-4.23c-.351 0-.602-.077-.751-.232-.15-.155-.225-.428-.225-.819 0-.391.075-.664.225-.819.15-.155.4-.232.751-.232h5.578c.351 0 .602.077.751.232.15.155.225.428.225.819v17.122h4.974c.351 0 .602.077.751.232.15.155.225.428.225.819 0 .391-.075.664-.225.819-.15.155-.4.232-.751.232h-12.148c-.351 0-.602-.077-.751-.232-.15-.155-.225-.428-.225-.819 0-.391.075-.664.225-.819.15-.155.4-.232.751-.232h4.85v-16.071zm62.026-20.862c.083 1.556.514 2.722 1.294 3.5s1.893 1.167 3.339 1.167c1.043 0 2.056-.118 3.037-.355.981-.237 1.828-.561 2.541-.974.331-.185.607-.201.829-.046.222.155.4.397.535.726.145.33.176.626.093.889-.083.263-.294.482-.635.657-.403.196-.85.376-1.34.541-.491.165-1.012.306-1.565.425-.553.118-1.123.211-1.712.278-.589.067-1.183.1-1.782.1-1.136 0-2.143-.173-3.021-.518-.878-.345-1.617-.84-2.216-1.484-.599-.644-1.056-1.427-1.371-2.349-.315-.922-.473-1.965-.473-3.129 0-1.123.183-2.145.55-3.067.367-.922.875-1.71 1.526-2.364.651-.654 1.428-1.159 2.332-1.514.904-.355 1.898-.533 2.983-.533 1.147 0 2.159.178 3.037.533.878.355 1.619.847 2.224 1.476.604.628 1.072 1.375 1.402 2.241.331.865.527 1.813.589 2.843 0 .35-.075.598-.225.742-.15.144-.4.216-.751.216h-11.218zm4.943-5.81c-1.291 0-2.347.322-3.169.966-.821.644-1.361 1.538-1.619 2.681h9.467c-.217-1.164-.708-2.063-1.472-2.697-.764-.634-1.834-.95-3.207-.95zm-9.199 10.276c.351 0 .602.077.751.232.15.155.225.428.225.819 0 .391-.075.664-.225.819-.15.155-.4.232-.751.232h-2.464c-.351 0-.602-.077-.751-.232-.15-.155-.225-.428-.225-.819v-1.236c-.64.834-1.387 1.481-2.239 1.939-.852.458-1.795.688-2.828.688-.961 0-1.849-.162-2.665-.487-.816-.325-1.521-.791-2.115-1.399-.594-.608-1.061-1.35-1.402-2.225-.341-.876-.511-1.87-.511-2.982 0-1.113.17-2.107.511-2.982.341-.876.808-1.617 1.402-2.225.594-.608 1.299-1.074 2.115-1.399.816-.325 1.704-.487 2.665-.487 1.033 0 1.955.209 2.766.626.811.417 1.526 1.012 2.146 1.785v-6.738h-3.13c-.351 0-.602-.077-.751-.232-.15-.155-.225-.428-.225-.819 0-.391.075-.664.225-.819.15-.155.4-.232.751-.232h4.478c.351 0 .602.077.751.232.15.155.225.428.225.819v17.122h1.271zm-3.595-4.651c0-.762-.119-1.442-.356-2.04-.238-.598-.568-1.1-.992-1.507-.424-.407-.927-.719-1.511-.935-.584-.216-1.216-.325-1.898-.325-.702 0-1.327.118-1.875.355-.547.237-1.007.569-1.379.997-.372.428-.656.935-.852 1.522-.196.587-.294 1.231-.294 1.932 0 .701.098 1.344.294 1.932.196.587.48 1.095.852 1.522.372.428.832.76 1.379.997s1.172.355 1.875.355c.682 0 1.314-.108 1.898-.325.584-.216 1.087-.528 1.511-.935.424-.407.754-.909.992-1.507.238-.598.356-1.277.356-2.04zm-20.241-5.424h-3.92c-.351 0-.602-.077-.751-.232-.15-.155-.225-.428-.225-.819 0-.391.075-.664.225-.819.15-.155.4-.232.751-.232h5.268c.351 0 .602.077.751.232.15.155.225.428.225.819v11.126h4.974c.351 0 .602.077.751.232.15.155.225.428.225.819 0 .391-.075.664-.225.819-.15.155-.4.232-.751.232h-12.148c-.351 0-.602-.077-.751-.232-.15-.155-.225-.428-.225-.819 0-.391.075-.664.225-.819.15-.155.4-.232.751-.232h4.85v-10.076zm2.324-5.872c0 .361-.098.618-.294.773-.196.155-.589.232-1.178.232s-.981-.077-1.178-.232c-.196-.155-.294-.412-.294-.773v-2.009c0-.361.098-.618.294-.773.196-.155.589-.232 1.178-.232s.981.077 1.178.232c.196.155.294.412.294.773v2.009zm-11.012 15.948c.351 0 .602.077.751.232.15.155.225.428.225.819 0 .391-.075.664-.225.819-.15.155-.4.232-.751.232h-2.464c-.351 0-.602-.075-.751-.224-.15-.149-.225-.42-.225-.811v-1.87c-.682 1.061-1.477 1.867-2.386 2.418-.909.551-1.896.827-2.96.827-.713 0-1.353-.118-1.921-.355-.568-.237-1.051-.572-1.449-1.004-.398-.433-.702-.961-.914-1.584-.212-.623-.318-1.321-.318-2.094v-7.479h-1.271c-.351 0-.602-.077-.751-.232-.15-.155-.225-.428-.225-.819 0-.391.075-.664.225-.819.15-.155.4-.232.751-.232h2.619c.351 0 .602.077.751.232.15.155.225.428.225.819v8.298c0 .443.052.847.155 1.213.103.366.258.68.465.943.207.263.467.466.782.61.315.144.684.216 1.108.216.661 0 1.291-.144 1.89-.433.599-.288 1.126-.69 1.58-1.205.455-.515.816-1.128 1.085-1.839.269-.711.403-1.489.403-2.333v-4.42h-2.2c-.351 0-.602-.077-.751-.232-.15-.155-.225-.428-.225-.819 0-.391.075-.664.225-.819.15-.155.4-.232.751-.232h3.548c.351 0 .602.077.751.232.15.155.225.428.225.819v11.126h1.271zm-30.835 5.362c.713.299 1.462.518 2.247.657.785.139 1.555.209 2.309.209.692 0 1.294-.09 1.805-.27.511-.18.935-.438 1.271-.773.336-.335.586-.734.751-1.198.165-.464.248-.979.248-1.545v-3.183c-.62.773-1.335 1.368-2.146 1.785-.811.417-1.733.626-2.766.626-.961 0-1.849-.162-2.665-.487-.816-.325-1.521-.791-2.115-1.399-.594-.608-1.061-1.35-1.402-2.225-.341-.876-.511-1.87-.511-2.982 0-1.113.17-2.107.511-2.982.341-.876.808-1.617 1.402-2.225.594-.608 1.299-1.074 2.115-1.399.816-.325 1.704-.487 2.665-.487 1.033 0 1.976.229 2.828.688.852.458 1.599 1.105 2.239 1.939v-1.236c0-.391.075-.664.225-.819.15-.155.4-.232.751-.232h2.464c.351 0 .602.077.751.232.15.155.225.428.225.819 0 .391-.075.664-.225.819-.15.155-.4.232-.751.232h-1.271v12.718c0 .927-.142 1.754-.426 2.48-.284.726-.7 1.339-1.247 1.839-.547.5-1.219.883-2.014 1.151-.795.268-1.699.402-2.712.402-.899 0-1.803-.077-2.712-.232-.909-.155-1.772-.386-2.588-.695-.279-.113-.462-.283-.55-.51-.088-.227-.065-.536.07-.927.134-.391.307-.649.519-.773.212-.124.447-.129.705-.015zm8.631-10.786c0-.762-.119-1.442-.356-2.04-.238-.598-.568-1.1-.992-1.507-.424-.407-.927-.719-1.511-.935-.584-.216-1.216-.325-1.898-.325-.702 0-1.327.118-1.875.355-.547.237-1.007.569-1.379.997-.372.428-.656.935-.852 1.522-.196.587-.294 1.231-.294 1.932 0 .701.098 1.344.294 1.932.196.587.48 1.095.852 1.522.372.428.832.76 1.379.997s1.172.355 1.875.355c.682 0 1.314-.108 1.898-.325.584-.216 1.087-.528 1.511-.935.424-.407.754-.909.992-1.507.238-.598.356-1.277.356-2.04zm-48.225 6.861c0 .361-.085.618-.256.773-.17.155-.473.232-.906.232-.434 0-.736-.077-.906-.232-.17-.155-.256-.412-.256-.773v-3.709c0-.361.085-.618.256-.773.17-.155.473-.232.906-.232.227 0 .403.052.527.155.124.103.227.263.31.479.382.999 1.007 1.723 1.875 2.171.868.448 2.019.672 3.455.672 1.24 0 2.169-.219 2.789-.657.62-.438.93-1.012.93-1.723 0-.371-.119-.667-.356-.889-.238-.221-.558-.399-.961-.533-.455-.155-.981-.268-1.58-.34-.599-.072-1.229-.144-1.89-.216-.661-.072-1.32-.165-1.976-.278-.656-.113-1.263-.278-1.821-.495-.351-.134-.671-.299-.961-.495-.289-.196-.54-.428-.751-.695-.212-.268-.377-.577-.496-.927-.119-.35-.178-.752-.178-1.205 0-.69.139-1.301.418-1.831.279-.531.664-.976 1.154-1.337.491-.361 1.069-.634 1.735-.819.666-.185 1.392-.278 2.177-.278 1.033 0 1.96.152 2.781.456.821.304 1.526.719 2.115 1.244v-.695c0-.361.085-.618.256-.773.17-.155.473-.232.906-.232.434 0 .736.077.906.232.17.155.256.412.256.773v2.936c0 .361-.085.618-.256.773-.17.155-.473.232-.906.232-.351 0-.599-.134-.744-.402-.238-.443-.524-.814-.86-1.113-.336-.299-.723-.536-1.162-.711-.439-.175-.922-.299-1.449-.371-.527-.072-1.09-.108-1.689-.108-1.002 0-1.784.175-2.347.525-.563.35-.844.85-.844 1.499 0 .34.111.613.333.819.222.206.529.371.922.495.434.144.94.25 1.518.317.578.067 1.188.134 1.828.201.64.067 1.286.149 1.937.247s1.255.25 1.813.456c.382.144.733.317 1.054.518.32.201.597.443.829.726.232.283.413.613.542.989.129.376.194.811.194 1.306 0 .69-.132 1.319-.395 1.885-.263.567-.651 1.053-1.162 1.46-.511.407-1.141.721-1.89.943-.749.221-1.604.332-2.564.332-1.126 0-2.11-.155-2.952-.464-.842-.309-1.578-.778-2.208-1.406v.865zm-15.722 0c0 .361-.085.618-.256.773-.17.155-.473.232-.906.232-.434 0-.736-.077-.906-.232-.17-.155-.256-.412-.256-.773v-3.709c0-.361.085-.618.256-.773.17-.155.473-.232.906-.232.227 0 .403.052.527.155.124.103.227.263.31.479.382.999 1.007 1.723 1.875 2.171.868.448 2.019.672 3.455.672 1.24 0 2.169-.219 2.789-.657.62-.438.93-1.012.93-1.723 0-.371-.119-.667-.356-.889-.238-.221-.558-.399-.961-.533-.455-.155-.981-.268-1.58-.34-.599-.072-1.229-.144-1.89-.216-.661-.072-1.32-.165-1.976-.278-.656-.113-1.263-.278-1.821-.495-.351-.134-.671-.299-.961-.495-.289-.196-.54-.428-.751-.695-.212-.268-.377-.577-.496-.927-.119-.35-.178-.752-.178-1.205 0-.69.139-1.301.418-1.831.279-.531.664-.976 1.154-1.337.491-.361 1.069-.634 1.735-.819.666-.185 1.392-.278 2.177-.278 1.033 0 1.96.152 2.781.456.821.304 1.526.719 2.115 1.244v-.695c0-.361.085-.618.256-.773.17-.155.473-.232.906-.232.434 0 .736.077.906.232.17.155.256.412.256.773v2.936c0 .361-.085.618-.256.773-.17.155-.473.232-.906.232-.351 0-.599-.134-.744-.402-.238-.443-.524-.814-.86-1.113-.336-.299-.723-.536-1.162-.711-.439-.175-.922-.299-1.449-.371-.527-.072-1.09-.108-1.689-.108-1.002 0-1.784.175-2.347.525-.563.35-.844.85-.844 1.499 0 .34.111.613.333.819.222.206.529.371.922.495.434.144.94.25 1.518.317.578.067 1.188.134 1.828.201.64.067 1.286.149 1.937.247s1.255.25 1.813.456c.382.144.733.317 1.054.518.32.201.597.443.829.726.232.283.413.613.542.989.129.376.194.811.194 1.306 0 .69-.132 1.319-.395 1.885-.263.567-.651 1.053-1.162 1.46-.511.407-1.141.721-1.89.943-.749.221-1.604.332-2.564.332-1.126 0-2.11-.155-2.952-.464-.842-.309-1.578-.778-2.208-1.406v.865zm-7.221-8.468c0-.464-.093-.891-.279-1.283-.186-.391-.462-.729-.829-1.012-.367-.283-.819-.505-1.356-.664-.537-.16-1.162-.24-1.875-.24-.754 0-1.449.129-2.084.386-.635.258-1.18.618-1.635 1.082-.455.464-.811 1.012-1.069 1.646-.258.634-.387 1.326-.387 2.078 0 .752.119 1.445.356 2.078.238.634.576 1.182 1.015 1.646.439.464.968.824 1.588 1.082.62.258 1.307.386 2.061.386.95 0 1.87-.144 2.758-.433.888-.288 1.704-.716 2.448-1.283.269-.206.522-.283.759-.232.238.052.465.258.682.618.176.278.25.567.225.865-.026.299-.189.556-.488.773-.837.618-1.813 1.102-2.929 1.453-1.116.35-2.267.525-3.455.525-1.136 0-2.164-.188-3.083-.564-.919-.376-1.704-.899-2.355-1.569-.651-.67-1.152-1.46-1.503-2.372-.351-.912-.527-1.903-.527-2.975 0-1.071.181-2.063.542-2.975.362-.912.87-1.702 1.526-2.372.656-.67 1.441-1.192 2.355-1.569.914-.376 1.929-.564 3.045-.564.94 0 1.792.167 2.557.502.764.335 1.41.811 1.937 1.429v-.927c0-.361.085-.618.256-.773.17-.155.473-.232.906-.232.434 0 .736.077.906.232.17.155.256.412.256.773v4.481c0 .361-.085.618-.256.773-.17.155-.473.232-.906.232-.434 0-.736-.077-.906-.232-.17-.155-.256-.412-.256-.773z" class="logo__character"/></g></svg>
