<svg width="359" height="121" xmlns="http://www.w3.org/2000/svg"><g fill="none"><path d="M349.364 93.235c-1.508-.907-2.644-2.091-3.409-3.554-.764-1.463-1.147-3.142-1.147-5.038v-5.161c0-2.761-.516-4.734-1.549-5.919-1.033-1.185-2.706-1.777-5.02-1.777-.702 0-1.203-.155-1.503-.464-.3-.309-.449-.855-.449-1.638 0-.783.15-1.329.449-1.638.3-.309.801-.464 1.503-.464 3.615 0 6.389.943 8.321 2.828 1.932 1.885 2.898 4.785 2.898 8.7v5.223c0 2.246.537 3.946 1.611 5.1 1.074 1.154 2.758 1.731 5.051 1.731.702 0 1.203.155 1.503.464.3.309.449.855.449 1.638 0 .783-.15 1.329-.449 1.638-.3.309-.801.464-1.503.464-2.293 0-3.977.572-5.051 1.715-1.074 1.144-1.611 2.838-1.611 5.084v6.583c0 3.935-.966 6.841-2.898 8.716-1.932 1.875-4.705 2.813-8.321 2.813-.702 0-1.203-.155-1.503-.464-.3-.309-.449-.855-.449-1.638 0-.783.15-1.329.449-1.638.3-.309.801-.464 1.503-.464 2.314 0 3.987-.592 5.02-1.777 1.033-1.185 1.549-3.158 1.549-5.919v-6.521c0-1.896.382-3.58 1.147-5.053.764-1.473 1.901-2.663 3.409-3.57z" fill="#A8BDD2"/><path d="M313.034 84.117c0-.721.139-1.396.418-2.024.279-.628.656-1.18 1.131-1.654s1.028-.85 1.658-1.128c.63-.278 1.307-.417 2.03-.417.723 0 1.4.139 2.03.417.63.278 1.183.654 1.658 1.128.475.474.852 1.025 1.131 1.654.279.628.418 1.303.418 2.024 0 .721-.139 1.396-.418 2.024-.279.628-.656 1.18-1.131 1.654s-1.028.85-1.658 1.128c-.63.278-1.307.417-2.03.417-.723 0-1.4-.139-2.03-.417-.63-.278-1.183-.654-1.658-1.128-.475-.474-.852-1.025-1.131-1.654-.279-.628-.418-1.303-.418-2.024zm1.704 31.834c-.227.433-.522.752-.883.958-.362.206-.749.309-1.162.309-.289 0-.558-.046-.806-.139-.248-.093-.465-.227-.651-.402-.186-.175-.315-.386-.387-.634-.072-.247-.077-.536-.015-.865l3.223-14.897c.186-.824.723-1.236 1.611-1.236h6.012c.516 0 .863.191 1.038.572.176.381.119.84-.17 1.375l-7.809 14.959z" fill="#A8BDD2"/><path d="M287.251 106.803c0 .721-.17 1.236-.511 1.545-.341.309-.945.464-1.813.464s-1.472-.155-1.813-.464c-.341-.309-.511-.824-.511-1.545v-7.418c0-.721.17-1.236.511-1.545.341-.309.945-.464 1.813-.464.455 0 .806.103 1.054.309.248.206.455.525.62.958.764 1.999 2.014 3.446 3.75 4.342 1.735.896 4.039 1.344 6.911 1.344 2.479 0 4.339-.438 5.578-1.314 1.24-.876 1.859-2.024 1.859-3.446 0-.742-.238-1.334-.713-1.777-.475-.443-1.116-.798-1.921-1.066-.909-.309-1.963-.536-3.161-.68-1.198-.144-2.459-.288-3.781-.433-1.322-.144-2.639-.33-3.951-.556-1.312-.227-2.526-.556-3.641-.989-.702-.268-1.343-.598-1.921-.989-.578-.391-1.079-.855-1.503-1.391-.424-.536-.754-1.154-.992-1.854-.238-.701-.356-1.504-.356-2.411 0-1.381.279-2.601.837-3.662.558-1.061 1.327-1.952 2.309-2.673.981-.721 2.138-1.267 3.471-1.638 1.333-.371 2.784-.556 4.354-.556 2.066 0 3.92.304 5.563.912 1.642.608 3.052 1.437 4.23 2.488v-1.391c0-.721.17-1.236.511-1.545.341-.309.945-.464 1.813-.464s1.472.155 1.813.464c.341.309.511.824.511 1.545v5.872c0 .721-.17 1.236-.511 1.545-.341.309-.945.464-1.813.464-.702 0-1.198-.268-1.488-.804-.475-.886-1.048-1.628-1.72-2.225-.671-.598-1.446-1.071-2.324-1.422-.878-.35-1.844-.598-2.898-.742-1.054-.144-2.18-.216-3.378-.216-2.004 0-3.569.35-4.695 1.051-1.126.701-1.689 1.7-1.689 2.998 0 .68.222 1.226.666 1.638.444.412 1.059.742 1.844.989.868.288 1.88.5 3.037.634s2.376.268 3.657.402c1.281.134 2.572.299 3.874.495s2.51.5 3.626.912c.764.288 1.467.634 2.107 1.035.64.402 1.193.886 1.658 1.453.465.567.826 1.226 1.085 1.978.258.752.387 1.623.387 2.612 0 1.381-.263 2.637-.79 3.771-.527 1.133-1.302 2.107-2.324 2.921-1.023.814-2.283 1.442-3.781 1.885-1.498.443-3.207.664-5.129.664-2.252 0-4.22-.309-5.904-.927-1.684-.618-3.156-1.556-4.416-2.813v1.731z" id="s" fill="#6897C5"/><path d="M254.371 94.997c.165 3.111 1.028 5.445 2.588 7 1.56 1.556 3.786 2.333 6.678 2.333 2.087 0 4.111-.237 6.074-.711s3.657-1.123 5.082-1.947c.661-.371 1.214-.402 1.658-.093.444.309.801.793 1.069 1.453.289.659.351 1.252.186 1.777-.165.525-.589.963-1.271 1.314-.806.391-1.699.752-2.681 1.082-.981.33-2.025.613-3.13.85s-2.247.422-3.424.556c-1.178.134-2.366.201-3.564.201-2.273 0-4.287-.345-6.043-1.035-1.756-.69-3.233-1.679-4.432-2.967-1.198-1.288-2.112-2.854-2.743-4.698-.63-1.844-.945-3.93-.945-6.259 0-2.246.367-4.291 1.1-6.135.733-1.844 1.751-3.42 3.052-4.729 1.302-1.308 2.856-2.318 4.664-3.029 1.808-.711 3.796-1.066 5.965-1.066 2.293 0 4.318.355 6.074 1.066 1.756.711 3.238 1.695 4.447 2.952s2.143 2.751 2.805 4.481c.661 1.731 1.054 3.626 1.178 5.687 0 .701-.15 1.195-.449 1.484-.3.288-.801.433-1.503.433h-22.436zm9.886-11.621c-2.582 0-4.695.644-6.337 1.932-1.642 1.288-2.722 3.075-3.238 5.362h18.935c-.434-2.328-1.415-4.126-2.944-5.393-1.529-1.267-3.667-1.901-6.415-1.901z" id="e" fill="#6897C5"/><path d="M219.022 83.777h-3.161c-.702 0-1.203-.155-1.503-.464-.3-.309-.449-.855-.449-1.638 0-.783.15-1.329.449-1.638.3-.309.801-.464 1.503-.464h5.547c.702 0 1.203.155 1.503.464.3.309.449.855.449 1.638v3.709c1.364-2.122 2.954-3.735 4.772-4.837 1.818-1.102 3.791-1.654 5.919-1.654 1.426 0 2.706.237 3.843.711 1.136.474 2.102 1.144 2.898 2.009.795.865 1.405 1.921 1.828 3.168.424 1.247.635 2.643.635 4.188v14.959h2.541c.702 0 1.203.155 1.503.464.3.309.449.855.449 1.638 0 .783-.15 1.329-.449 1.638-.3.309-.801.464-1.503.464h-10.041c-.702 0-1.203-.155-1.503-.464-.3-.309-.449-.855-.449-1.638 0-.783.15-1.329.449-1.638.3-.309.801-.464 1.503-.464h2.851v-14.495c0-.886-.103-1.695-.31-2.426-.207-.731-.516-1.36-.93-1.885-.413-.525-.935-.932-1.565-1.221-.63-.288-1.369-.433-2.216-.433-1.322 0-2.582.288-3.781.865-1.198.577-2.252 1.38-3.161 2.411-.909 1.03-1.632 2.256-2.169 3.678-.537 1.422-.806 2.977-.806 4.667v8.839h2.851c.702 0 1.203.155 1.503.464.3.309.449.855.449 1.638 0 .783-.15 1.329-.449 1.638-.3.309-.801.464-1.503.464h-10.041c-.702 0-1.203-.155-1.503-.464-.3-.309-.449-.855-.449-1.638 0-.783.15-1.329.449-1.638.3-.309.801-.464 1.503-.464h2.541v-20.151z" fill="#6897C5"/><path d="M193.559 83.777h-7.84c-.702 0-1.203-.155-1.503-.464-.3-.309-.449-.855-.449-1.638 0-.783.15-1.329.449-1.638.3-.309.801-.464 1.503-.464h10.536c.702 0 1.203.155 1.503.464.3.309.449.855.449 1.638v22.253h9.948c.702 0 1.203.155 1.503.464.3.309.449.855.449 1.638 0 .783-.15 1.329-.449 1.638-.3.309-.801.464-1.503.464h-24.296c-.702 0-1.203-.155-1.503-.464-.3-.309-.449-.855-.449-1.638 0-.783.15-1.329.449-1.638.3-.309.801-.464 1.503-.464h9.7v-20.151zm4.648-11.745c0 .721-.196 1.236-.589 1.545-.393.309-1.178.464-2.355.464-1.178 0-1.963-.155-2.355-.464-.393-.309-.589-.824-.589-1.545v-4.018c0-.721.196-1.236.589-1.545.393-.309 1.178-.464 2.355-.464 1.178 0 1.963.155 2.355.464.393.309.589.824.589 1.545v4.018z" id="i" fill="#6897C5"/><path d="M161.144 71.786h-8.46c-.702 0-1.203-.155-1.503-.464-.3-.309-.449-.855-.449-1.638 0-.783.15-1.329.449-1.638.3-.309.801-.464 1.503-.464h11.156c.702 0 1.203.155 1.503.464.3.309.449.855.449 1.638v34.245h9.948c.702 0 1.203.155 1.503.464.3.309.449.855.449 1.638 0 .783-.15 1.329-.449 1.638-.3.309-.801.464-1.503.464h-24.296c-.702 0-1.203-.155-1.503-.464-.3-.309-.449-.855-.449-1.638 0-.783.15-1.329.449-1.638.3-.309.801-.464 1.503-.464h9.7v-32.143z" fill="#6897C5"/><path d="M313.075 37.655c0-.721.139-1.396.418-2.024.279-.628.656-1.18 1.131-1.654s1.028-.85 1.658-1.128c.63-.278 1.307-.417 2.03-.417.723 0 1.4.139 2.03.417.63.278 1.183.654 1.658 1.128.475.474.852 1.025 1.131 1.654.279.628.418 1.303.418 2.024 0 .721-.139 1.396-.418 2.024-.279.628-.656 1.18-1.131 1.654s-1.028.85-1.658 1.128c-.63.278-1.307.417-2.03.417-.723 0-1.4-.139-2.03-.417-.63-.278-1.183-.654-1.658-1.128-.475-.474-.852-1.025-1.131-1.654-.279-.628-.418-1.303-.418-2.024zm0-19.471c0-.721.139-1.396.418-2.024.279-.628.656-1.18 1.131-1.654s1.028-.85 1.658-1.128c.63-.278 1.307-.417 2.03-.417.723 0 1.4.139 2.03.417.63.278 1.183.654 1.658 1.128.475.474.852 1.025 1.131 1.654.279.628.418 1.303.418 2.024 0 .721-.139 1.396-.418 2.024-.279.628-.656 1.18-1.131 1.654s-1.028.85-1.658 1.128c-.63.278-1.307.417-2.03.417-.723 0-1.4-.139-2.03-.417-.63-.278-1.183-.654-1.658-1.128-.475-.474-.852-1.025-1.131-1.654-.279-.628-.418-1.303-.418-2.024z" fill="#A8BDD2"/><path d="M285.195 29.063c.165 3.111 1.028 5.445 2.588 7 1.56 1.556 3.786 2.333 6.678 2.333 2.087 0 4.111-.237 6.074-.711s3.657-1.123 5.082-1.947c.661-.371 1.214-.402 1.658-.093.444.309.801.793 1.069 1.453.289.659.351 1.252.186 1.777-.165.525-.589.963-1.271 1.314-.806.391-1.699.752-2.681 1.082-.981.33-2.025.613-3.13.85s-2.247.422-3.424.556c-1.178.134-2.366.201-3.564.201-2.273 0-4.287-.345-6.043-1.035-1.756-.69-3.233-1.679-4.432-2.967-1.198-1.288-2.112-2.854-2.743-4.698-.63-1.844-.945-3.93-.945-6.259 0-2.246.367-4.291 1.1-6.135.733-1.844 1.751-3.42 3.052-4.729 1.302-1.308 2.856-2.318 4.664-3.029 1.808-.711 3.796-1.066 5.965-1.066 2.293 0 4.318.355 6.074 1.066 1.756.711 3.238 1.695 4.447 2.952s2.143 2.751 2.805 4.481c.661 1.731 1.054 3.626 1.178 5.687 0 .701-.15 1.195-.449 1.484-.3.288-.801.433-1.503.433h-22.436zm9.886-11.621c-2.582 0-4.695.644-6.337 1.932-1.642 1.288-2.722 3.075-3.238 5.362h18.935c-.434-2.328-1.415-4.126-2.944-5.393-1.529-1.267-3.667-1.901-6.415-1.901z" fill="#6897C5"/><path d="M276.683 37.995c.702 0 1.203.155 1.503.464.3.309.449.855.449 1.638 0 .783-.15 1.329-.449 1.638-.3.309-.801.464-1.503.464h-4.927c-.702 0-1.203-.155-1.503-.464-.3-.309-.449-.855-.449-1.638v-2.473c-1.281 1.669-2.774 2.962-4.478 3.879-1.704.917-3.59 1.375-5.656 1.375-1.921 0-3.698-.325-5.33-.974-1.632-.649-3.042-1.581-4.23-2.797-1.188-1.216-2.123-2.699-2.805-4.451-.682-1.751-1.023-3.74-1.023-5.965 0-2.225.341-4.214 1.023-5.965.682-1.751 1.617-3.235 2.805-4.451 1.188-1.216 2.598-2.148 4.23-2.797 1.632-.649 3.409-.974 5.33-.974 2.066 0 3.91.417 5.532 1.252 1.622.834 3.052 2.024 4.292 3.57v-13.475h-6.26c-.702 0-1.203-.155-1.503-.464-.3-.309-.449-.855-.449-1.638 0-.783.15-1.329.449-1.638.3-.309.801-.464 1.503-.464h8.956c.702 0 1.203.155 1.503.464.3.309.449.855.449 1.638v34.245h2.541zm-7.19-9.303c0-1.525-.238-2.885-.713-4.08-.475-1.195-1.136-2.2-1.983-3.013-.847-.814-1.854-1.437-3.021-1.87-1.167-.433-2.433-.649-3.796-.649-1.405 0-2.655.237-3.75.711-1.095.474-2.014 1.138-2.758 1.993-.744.855-1.312 1.87-1.704 3.044-.393 1.174-.589 2.462-.589 3.863 0 1.401.196 2.689.589 3.863.393 1.174.961 2.189 1.704 3.044.744.855 1.663 1.52 2.758 1.993 1.095.474 2.345.711 3.75.711 1.364 0 2.629-.216 3.796-.649 1.167-.433 2.174-1.056 3.021-1.87.847-.814 1.508-1.818 1.983-3.013.475-1.195.713-2.555.713-4.08z" fill="#6897C5"/><path d="M229.011 17.843h-7.84c-.702 0-1.203-.155-1.503-.464-.3-.309-.449-.855-.449-1.638 0-.783.15-1.329.449-1.638.3-.309.801-.464 1.503-.464h10.536c.702 0 1.203.155 1.503.464.3.309.449.855.449 1.638v22.253h9.948c.702 0 1.203.155 1.503.464.3.309.449.855.449 1.638 0 .783-.15 1.329-.449 1.638-.3.309-.801.464-1.503.464h-24.296c-.702 0-1.203-.155-1.503-.464-.3-.309-.449-.855-.449-1.638 0-.783.15-1.329.449-1.638.3-.309.801-.464 1.503-.464h9.7v-20.151zm4.648-11.745c0 .721-.196 1.236-.589 1.545-.393.309-1.178.464-2.355.464-1.178 0-1.963-.155-2.355-.464-.393-.309-.589-.824-.589-1.545v-4.018c0-.721.196-1.236.589-1.545.393-.309 1.178-.464 2.355-.464 1.178 0 1.963.155 2.355.464.393.309.589.824.589 1.545v4.018z" fill="#6897C5"/><path d="M211.636 37.995c.702 0 1.203.155 1.503.464.3.309.449.855.449 1.638 0 .783-.15 1.329-.449 1.638-.3.309-.801.464-1.503.464h-4.927c-.702 0-1.203-.149-1.503-.448-.3-.299-.449-.84-.449-1.623v-3.74c-1.364 2.122-2.954 3.735-4.772 4.837-1.818 1.102-3.791 1.654-5.919 1.654-1.426 0-2.706-.237-3.843-.711-1.136-.474-2.102-1.144-2.898-2.009-.795-.865-1.405-1.921-1.828-3.168-.424-1.247-.635-2.643-.635-4.188v-14.959h-2.541c-.702 0-1.203-.155-1.503-.464-.3-.309-.449-.855-.449-1.638 0-.783.15-1.329.449-1.638.3-.309.801-.464 1.503-.464h5.237c.702 0 1.203.155 1.503.464.3.309.449.855.449 1.638v16.597c0 .886.103 1.695.31 2.426.207.731.516 1.36.93 1.885.413.525.935.932 1.565 1.221.63.288 1.369.433 2.216.433 1.322 0 2.582-.288 3.781-.865 1.198-.577 2.252-1.38 3.161-2.411.909-1.03 1.632-2.256 2.169-3.678.537-1.422.806-2.977.806-4.667v-8.839h-4.401c-.702 0-1.203-.155-1.503-.464-.3-.309-.449-.855-.449-1.638 0-.783.15-1.329.449-1.638.3-.309.801-.464 1.503-.464h7.097c.702 0 1.203.155 1.503.464.3.309.449.855.449 1.638v22.253h2.541z" fill="#6897C5"/><path d="M149.967 48.719c1.426.598 2.923 1.035 4.493 1.314 1.57.278 3.109.417 4.617.417 1.384 0 2.588-.18 3.61-.541 1.023-.361 1.87-.876 2.541-1.545.671-.67 1.172-1.468 1.503-2.395.331-.927.496-1.957.496-3.091v-6.367c-1.24 1.545-2.67 2.735-4.292 3.57-1.622.834-3.466 1.252-5.532 1.252-1.921 0-3.698-.325-5.33-.974-1.632-.649-3.042-1.581-4.23-2.797-1.188-1.216-2.123-2.699-2.805-4.451-.682-1.751-1.023-3.74-1.023-5.965 0-2.225.341-4.214 1.023-5.965.682-1.751 1.617-3.235 2.805-4.451 1.188-1.216 2.598-2.148 4.23-2.797 1.632-.649 3.409-.974 5.33-.974 2.066 0 3.951.458 5.656 1.375 1.704.917 3.197 2.21 4.478 3.879v-2.473c0-.783.15-1.329.449-1.638.3-.309.801-.464 1.503-.464h4.927c.702 0 1.203.155 1.503.464.3.309.449.855.449 1.638 0 .783-.15 1.329-.449 1.638-.3.309-.801.464-1.503.464h-2.541v25.436c0 1.854-.284 3.508-.852 4.961-.568 1.453-1.4 2.679-2.495 3.678-1.095.999-2.438 1.767-4.029 2.303-1.591.536-3.399.804-5.423.804-1.797 0-3.605-.155-5.423-.464-1.818-.309-3.543-.773-5.175-1.391-.558-.227-.925-.567-1.1-1.02-.176-.453-.129-1.071.139-1.854.269-.783.615-1.298 1.038-1.545.424-.247.894-.258 1.41-.031zm17.261-21.573c0-1.525-.238-2.885-.713-4.08-.475-1.195-1.136-2.2-1.983-3.013-.847-.814-1.854-1.437-3.021-1.87-1.167-.433-2.433-.649-3.796-.649-1.405 0-2.655.237-3.75.711-1.095.474-2.014 1.138-2.758 1.993-.744.855-1.312 1.87-1.704 3.044-.393 1.174-.589 2.462-.589 3.863 0 1.401.196 2.689.589 3.863.393 1.174.961 2.189 1.704 3.044.744.855 1.663 1.52 2.758 1.993 1.095.474 2.345.711 3.75.711 1.364 0 2.629-.216 3.796-.649 1.167-.433 2.174-1.056 3.021-1.87.847-.814 1.508-1.818 1.983-3.013.475-1.195.713-2.555.713-4.08z" fill="#6897C5"/><path d="M118.76 27.301c1.508.907 2.644 2.096 3.409 3.57.764 1.473 1.147 3.158 1.147 5.053v6.521c0 1.381.124 2.56.372 3.539.248.979.635 1.777 1.162 2.395.527.618 1.209 1.066 2.045 1.344.837.278 1.834.417 2.99.417.702 0 1.203.155 1.503.464.3.309.449.855.449 1.638 0 .783-.15 1.329-.449 1.638-.3.309-.801.464-1.503.464-3.615 0-6.389-.937-8.321-2.813-1.932-1.875-2.898-4.78-2.898-8.716v-6.583c0-2.246-.537-3.941-1.611-5.084-1.074-1.144-2.758-1.715-5.051-1.715-.702 0-1.203-.155-1.503-.464-.3-.309-.449-.855-.449-1.638 0-.783.15-1.329.449-1.638.3-.309.801-.464 1.503-.464 2.293 0 3.977-.577 5.051-1.731 1.074-1.154 1.611-2.854 1.611-5.1v-5.223c0-3.915.966-6.815 2.898-8.7 1.932-1.885 4.705-2.828 8.321-2.828.702 0 1.203.155 1.503.464.3.309.449.855.449 1.638 0 .783-.15 1.329-.449 1.638-.3.309-.801.464-1.503.464-1.157 0-2.154.139-2.99.417-.837.278-1.518.726-2.045 1.344-.527.618-.914 1.417-1.162 2.395-.248.979-.372 2.158-.372 3.539v5.161c0 1.896-.382 3.575-1.147 5.038-.764 1.463-1.901 2.648-3.409 3.554z" fill="#A8BDD2"/><path d="M70.778 40.869c0 .721-.17 1.236-.511 1.545-.341.309-.945.464-1.813.464s-1.472-.155-1.813-.464c-.341-.309-.511-.824-.511-1.545v-7.418c0-.721.17-1.236.511-1.545.341-.309.945-.464 1.813-.464.455 0 .806.103 1.054.309.248.206.455.525.62.958.764 1.999 2.014 3.446 3.75 4.342 1.735.896 4.039 1.344 6.911 1.344 2.479 0 4.339-.438 5.578-1.314 1.24-.876 1.859-2.024 1.859-3.446 0-.742-.238-1.334-.713-1.777-.475-.443-1.116-.798-1.921-1.066-.909-.309-1.963-.536-3.161-.68-1.198-.144-2.459-.288-3.781-.433-1.322-.144-2.639-.33-3.951-.556-1.312-.227-2.526-.556-3.641-.989-.702-.268-1.343-.598-1.921-.989-.578-.391-1.079-.855-1.503-1.391-.424-.536-.754-1.154-.992-1.854-.238-.701-.356-1.504-.356-2.411 0-1.381.279-2.601.837-3.662.558-1.061 1.327-1.952 2.309-2.673.981-.721 2.138-1.267 3.471-1.638 1.333-.371 2.784-.556 4.354-.556 2.066 0 3.92.304 5.563.912 1.642.608 3.052 1.437 4.23 2.488v-1.391c0-.721.17-1.236.511-1.545.341-.309.945-.464 1.813-.464s1.472.155 1.813.464c.341.309.511.824.511 1.545v5.872c0 .721-.17 1.236-.511 1.545-.341.309-.945.464-1.813.464-.702 0-1.198-.268-1.487-.804-.475-.886-1.048-1.628-1.72-2.225-.671-.598-1.446-1.071-2.324-1.422-.878-.35-1.844-.598-2.898-.742-1.054-.144-2.18-.216-3.378-.216-2.004 0-3.569.35-4.695 1.051-1.126.701-1.689 1.7-1.689 2.998 0 .68.222 1.226.666 1.638.444.412 1.059.742 1.844.989.868.288 1.88.5 3.037.634s2.376.268 3.657.402c1.281.134 2.572.299 3.874.495s2.51.5 3.626.912c.764.288 1.467.634 2.107 1.035.64.402 1.193.886 1.658 1.453.465.567.826 1.226 1.085 1.978.258.752.387 1.623.387 2.612 0 1.381-.263 2.637-.79 3.771-.527 1.133-1.302 2.107-2.324 2.921-1.023.814-2.283 1.442-3.781 1.885-1.498.443-3.207.664-5.129.664-2.252 0-4.22-.309-5.904-.927-1.684-.618-3.156-1.556-4.416-2.813v1.731zM39.334 40.869c0 .721-.17 1.236-.511 1.545-.341.309-.945.464-1.813.464s-1.472-.155-1.813-.464c-.341-.309-.511-.824-.511-1.545v-7.418c0-.721.17-1.236.511-1.545.341-.309.945-.464 1.813-.464.455 0 .806.103 1.054.309.248.206.455.525.62.958.764 1.999 2.014 3.446 3.75 4.342 1.735.896 4.039 1.344 6.911 1.344 2.479 0 4.339-.438 5.578-1.314 1.24-.876 1.859-2.024 1.859-3.446 0-.742-.238-1.334-.713-1.777-.475-.443-1.116-.798-1.921-1.066-.909-.309-1.963-.536-3.161-.68-1.198-.144-2.459-.288-3.781-.433-1.322-.144-2.639-.33-3.951-.556-1.312-.227-2.526-.556-3.641-.989-.702-.268-1.343-.598-1.921-.989-.578-.391-1.079-.855-1.503-1.391-.424-.536-.754-1.154-.992-1.854-.238-.701-.356-1.504-.356-2.411 0-1.381.279-2.601.837-3.662.558-1.061 1.327-1.952 2.309-2.673.981-.721 2.138-1.267 3.471-1.638 1.333-.371 2.784-.556 4.354-.556 2.066 0 3.92.304 5.563.912 1.642.608 3.052 1.437 4.23 2.488v-1.391c0-.721.17-1.236.511-1.545.341-.309.945-.464 1.813-.464s1.472.155 1.813.464c.341.309.511.824.511 1.545v5.872c0 .721-.17 1.236-.511 1.545-.341.309-.945.464-1.813.464-.702 0-1.198-.268-1.487-.804-.475-.886-1.048-1.628-1.72-2.225-.671-.598-1.446-1.071-2.324-1.422-.878-.35-1.844-.598-2.898-.742-1.054-.144-2.18-.216-3.378-.216-2.004 0-3.569.35-4.695 1.051-1.126.701-1.689 1.7-1.689 2.998 0 .68.222 1.226.666 1.638.444.412 1.059.742 1.844.989.868.288 1.88.5 3.037.634s2.376.268 3.657.402c1.281.134 2.572.299 3.874.495s2.51.5 3.626.912c.764.288 1.467.634 2.107 1.035.64.402 1.193.886 1.658 1.453.465.567.826 1.226 1.085 1.978.258.752.387 1.623.387 2.612 0 1.381-.263 2.637-.79 3.771-.527 1.133-1.302 2.107-2.324 2.921-1.023.814-2.283 1.442-3.781 1.885-1.498.443-3.207.664-5.129.664-2.252 0-4.22-.309-5.904-.927-1.684-.618-3.156-1.556-4.416-2.813v1.731z" fill="#6897C5"/><path d="M24.893 23.932c0-.927-.186-1.782-.558-2.565-.372-.783-.925-1.458-1.658-2.024-.733-.567-1.637-1.01-2.712-1.329-1.074-.319-2.324-.479-3.75-.479-1.508 0-2.898.258-4.168.773-1.271.515-2.36 1.236-3.269 2.163-.909.927-1.622 2.024-2.138 3.292-.516 1.267-.775 2.653-.775 4.157s.238 2.89.713 4.157 1.152 2.364 2.03 3.292c.878.927 1.937 1.648 3.176 2.163 1.24.515 2.613.773 4.122.773 1.901 0 3.739-.288 5.516-.865 1.777-.577 3.409-1.432 4.896-2.565.537-.412 1.043-.567 1.518-.464.475.103.93.515 1.364 1.236.351.556.501 1.133.449 1.731-.052.598-.377 1.113-.976 1.545-1.673 1.236-3.626 2.205-5.857 2.905-2.231.701-4.535 1.051-6.911 1.051-2.273 0-4.328-.376-6.167-1.128-1.839-.752-3.409-1.798-4.71-3.137-1.302-1.339-2.304-2.921-3.006-4.744s-1.054-3.807-1.054-5.95c0-2.143.362-4.126 1.085-5.95.723-1.823 1.741-3.405 3.052-4.744 1.312-1.339 2.882-2.385 4.71-3.137 1.828-.752 3.858-1.128 6.089-1.128 1.88 0 3.584.335 5.113 1.004 1.529.67 2.82 1.623 3.874 2.859v-1.854c0-.721.17-1.236.511-1.545.341-.309.945-.464 1.813-.464s1.472.155 1.813.464c.341.309.511.824.511 1.545v8.963c0 .721-.17 1.236-.511 1.545-.341.309-.945.464-1.813.464s-1.472-.155-1.813-.464c-.341-.309-.511-.824-.511-1.545z" fill="#6897C5"/></g></svg>
