<?xml version="1.0" encoding="UTF-8" standalone="no"?>
<svg class="logo" width="359px" height="120px" viewBox="0 0 359 120" version="1.1" xmlns="http://www.w3.org/2000/svg" xmlns:xlink="http://www.w3.org/1999/xlink" xmlns:sketch="http://www.bohemiancoding.com/sketch/ns">
    <!-- Generator: Sketch 3.0.4 (8054) - http://www.bohemiancoding.com/sketch -->
    <title>Exportable</title>
    <desc>Created with Sketch.</desc>
    <defs></defs>
    <g id="Page-1" stroke="none" stroke-width="1" fill="none" fill-rule="evenodd" sketch:type="MSPage">
        <g id="Exportable" sketch:type="MSLayerGroup" transform="translate(1.000000, 0.000000)">
            <path d="M348.364236,92.2348901 C346.856069,91.3282922 345.719795,90.1435513 344.955382,88.6806319 C344.190968,87.2177125 343.808767,85.538471 343.808767,83.6428571 L343.808767,78.481456 C343.808767,75.7204532 343.292279,73.7476021 342.259288,72.5628434 C341.226297,71.3780847 339.552876,70.7857143 337.238976,70.7857143 C336.536542,70.7857143 336.035548,70.6311829 335.735981,70.3221154 C335.436413,70.0130479 335.286632,69.4670369 335.286632,68.6840659 C335.286632,67.901095 335.436413,67.355084 335.735981,67.0460165 C336.035548,66.736949 336.536542,66.5824176 337.238976,66.5824176 C340.854445,66.5824176 343.627985,67.5250593 345.559679,69.4103709 C347.491373,71.2956825 348.457205,74.1957222 348.457205,78.1105769 L348.457205,83.3337912 C348.457205,85.5796816 348.994352,87.2795272 350.068663,88.4333791 C351.142974,89.587231 352.826725,90.1641484 355.119965,90.1641484 C355.822399,90.1641484 356.323393,90.3186798 356.62296,90.6277473 C356.922528,90.9368147 357.072309,91.4828258 357.072309,92.2657967 C357.072309,93.0487677 356.922528,93.5947787 356.62296,93.9038462 C356.323393,94.2129136 355.822399,94.3674451 355.119965,94.3674451 C352.826725,94.3674451 351.142974,94.9392113 350.068663,96.082761 C348.994352,97.2263107 348.457205,98.9210053 348.457205,101.166896 L348.457205,107.75 C348.457205,111.685459 347.491373,114.59065 345.559679,116.465659 C343.627985,118.340669 340.854445,119.278159 337.238976,119.278159 C336.536542,119.278159 336.035548,119.123628 335.735981,118.81456 C335.436413,118.505493 335.286632,117.959482 335.286632,117.176511 C335.286632,116.39354 335.436413,115.847529 335.735981,115.538462 C336.035548,115.229394 336.536542,115.074863 337.238976,115.074863 C339.552876,115.074863 341.226297,114.482492 342.259288,113.297734 C343.292279,112.112975 343.808767,110.140124 343.808767,107.379121 L343.808767,100.85783 C343.808767,98.9622158 344.190968,97.2778233 344.955382,95.8046016 C345.719795,94.33138 346.856069,93.141488 348.364236,92.2348901 Z M312.034115,83.1174451 C312.034115,82.3962876 312.173566,81.7215004 312.452474,81.0930632 C312.731382,80.464626 313.108418,79.9134639 313.583594,79.4395604 C314.05877,78.965657 314.611412,78.5896305 315.241536,78.3114698 C315.871661,78.033309 316.54826,77.8942308 317.271354,77.8942308 C317.994448,77.8942308 318.671047,78.033309 319.301172,78.3114698 C319.931297,78.5896305 320.483939,78.965657 320.959115,79.4395604 C321.434291,79.9134639 321.811327,80.464626 322.090234,81.0930632 C322.369142,81.7215004 322.508594,82.3962876 322.508594,83.1174451 C322.508594,83.8386025 322.369142,84.5133897 322.090234,85.1418269 C321.811327,85.7702641 321.434291,86.3214262 320.959115,86.7953297 C320.483939,87.2692331 319.931297,87.6452596 319.301172,87.9234203 C318.671047,88.2015811 317.994448,88.3406593 317.271354,88.3406593 C316.54826,88.3406593 315.871661,88.2015811 315.241536,87.9234203 C314.611412,87.6452596 314.05877,87.2692331 313.583594,86.7953297 C313.108418,86.3214262 312.731382,85.7702641 312.452474,85.1418269 C312.173566,84.5133897 312.034115,83.8386025 312.034115,83.1174451 Z M313.738542,114.951236 C313.511284,115.383931 313.216885,115.703296 312.855339,115.909341 C312.493792,116.115386 312.106426,116.218407 311.693229,116.218407 C311.403992,116.218407 311.135418,116.172047 310.8875,116.079327 C310.639582,115.986607 310.422657,115.852679 310.236719,115.677541 C310.05078,115.502403 309.921658,115.29121 309.849349,115.043956 C309.77704,114.796702 309.771875,114.508243 309.833854,114.178571 L313.056771,99.2815934 C313.242709,98.4574135 313.779857,98.0453297 314.668229,98.0453297 L320.680208,98.0453297 C321.196704,98.0453297 321.542751,98.2359184 321.718359,98.6171016 C321.893968,98.9982849 321.837154,99.4567281 321.547917,99.9924451 L313.738542,114.951236 Z M312.075434,37.654533 C312.075434,36.9333755 312.214886,36.2585883 312.493793,35.6301511 C312.772701,35.0017139 313.149737,34.4505518 313.624913,33.9766484 C314.100089,33.5027449 314.652731,33.1267184 315.282856,32.8485577 C315.912981,32.570397 316.58958,32.4313187 317.312674,32.4313187 C318.035768,32.4313187 318.712367,32.570397 319.342491,32.8485577 C319.972616,33.1267184 320.525258,33.5027449 321.000434,33.9766484 C321.47561,34.4505518 321.852646,35.0017139 322.131554,35.6301511 C322.410461,36.2585883 322.549913,36.9333755 322.549913,37.654533 C322.549913,38.3756904 322.410461,39.0504776 322.131554,39.6789148 C321.852646,40.307352 321.47561,40.8585141 321.000434,41.3324176 C320.525258,41.8063211 319.972616,42.1823475 319.342491,42.4605082 C318.712367,42.738669 318.035768,42.8777473 317.312674,42.8777473 C316.58958,42.8777473 315.912981,42.738669 315.282856,42.4605082 C314.652731,42.1823475 314.100089,41.8063211 313.624913,41.3324176 C313.149737,40.8585141 312.772701,40.307352 312.493793,39.6789148 C312.214886,39.0504776 312.075434,38.3756904 312.075434,37.654533 L312.075434,37.654533 Z M312.075434,18.1833791 C312.075434,17.4622217 312.214886,16.7874345 312.493793,16.1589973 C312.772701,15.53056 313.149737,14.979398 313.624913,14.5054945 C314.100089,14.031591 314.652731,13.6555646 315.282856,13.3774038 C315.912981,13.0992431 316.58958,12.9601648 317.312674,12.9601648 C318.035768,12.9601648 318.712367,13.0992431 319.342491,13.3774038 C319.972616,13.6555646 320.525258,14.031591 321.000434,14.5054945 C321.47561,14.979398 321.852646,15.53056 322.131554,16.1589973 C322.410461,16.7874345 322.549913,17.4622217 322.549913,18.1833791 C322.549913,18.9045366 322.410461,19.5793238 322.131554,20.207761 C321.852646,20.8361982 321.47561,21.3873603 321.000434,21.8612637 C320.525258,22.3351672 319.972616,22.7111937 319.342491,22.9893544 C318.712367,23.2675151 318.035768,23.4065934 317.312674,23.4065934 C316.58958,23.4065934 315.912981,23.2675151 315.282856,22.9893544 C314.652731,22.7111937 314.100089,22.3351672 313.624913,21.8612637 C313.149737,21.3873603 312.772701,20.8361982 312.493793,20.207761 C312.214886,19.5793238 312.075434,18.9045366 312.075434,18.1833791 L312.075434,18.1833791 Z M117.760417,27.3008242 C119.268584,28.2074221 120.404857,29.3973141 121.169271,30.8705357 C121.933684,32.3437574 122.315885,34.0281499 122.315885,35.9237637 L122.315885,42.4450549 C122.315885,43.8255564 122.439843,45.0051462 122.68776,45.9838599 C122.935678,46.9625736 123.323044,47.7609859 123.84987,48.3791209 C124.376695,48.9972558 125.058459,49.445397 125.895182,49.7235577 C126.731905,50.0017184 127.728727,50.1407967 128.885677,50.1407967 C129.588111,50.1407967 130.089104,50.2953281 130.388672,50.6043956 C130.688239,50.9134631 130.838021,51.4594741 130.838021,52.2424451 C130.838021,53.025416 130.688239,53.571427 130.388672,53.8804945 C130.089104,54.189562 129.588111,54.3440934 128.885677,54.3440934 C125.270208,54.3440934 122.496668,53.4066028 120.564974,51.5315934 C118.63328,49.656584 117.667448,46.7513933 117.667448,42.8159341 L117.667448,36.2328297 C117.667448,33.9869393 117.130301,32.2922447 116.05599,31.1486951 C114.981679,30.0051454 113.297928,29.4333791 111.004688,29.4333791 C110.302253,29.4333791 109.80126,29.2788477 109.501693,28.9697802 C109.202125,28.6607127 109.052344,28.1147017 109.052344,27.3317308 C109.052344,26.5487598 109.202125,26.0027488 109.501693,25.6936813 C109.80126,25.3846138 110.302253,25.2300824 111.004688,25.2300824 C113.297928,25.2300824 114.981679,24.6531651 116.05599,23.4993132 C117.130301,22.3454613 117.667448,20.6456156 117.667448,18.3997253 L117.667448,13.176511 C117.667448,9.26165625 118.63328,6.36161657 120.564974,4.47630495 C122.496668,2.59099332 125.270208,1.64835165 128.885677,1.64835165 C129.588111,1.64835165 130.089104,1.80288307 130.388672,2.11195055 C130.688239,2.42101803 130.838021,2.96702905 130.838021,3.75 C130.838021,4.53297095 130.688239,5.07898197 130.388672,5.38804945 C130.089104,5.69711693 129.588111,5.85164835 128.885677,5.85164835 C127.728727,5.85164835 126.731905,5.99072663 125.895182,6.26888736 C125.058459,6.54704809 124.376695,6.99518922 123.84987,7.61332418 C123.323044,8.23145913 122.935678,9.02987148 122.68776,10.0085852 C122.439843,10.9872988 122.315885,12.1668887 122.315885,13.5473901 L122.315885,18.7087912 C122.315885,20.6044051 121.933684,22.2836465 121.169271,23.7465659 C120.404857,25.2094853 119.268584,26.3942262 117.760417,27.3008242 L117.760417,27.3008242 Z" id="}" class="logo__punctuation" sketch:type="MSShapeGroup"></path>
            <path d="M286.250781,105.802885 C286.250781,106.524042 286.08034,107.039147 285.739453,107.348214 C285.398566,107.657282 284.794275,107.811813 283.926562,107.811813 C283.05885,107.811813 282.454559,107.657282 282.113672,107.348214 C281.772785,107.039147 281.602344,106.524042 281.602344,105.802885 L281.602344,98.3853022 C281.602344,97.6641447 281.772785,97.14904 282.113672,96.8399725 C282.454559,96.530905 283.05885,96.3763736 283.926562,96.3763736 C284.381079,96.3763736 284.73229,96.4793946 284.980208,96.6854396 C285.228126,96.8914845 285.434721,97.2108495 285.6,97.643544 C286.364414,99.6421803 287.614314,101.089625 289.34974,101.98592 C291.085165,102.882216 293.388701,103.330357 296.260417,103.330357 C298.739596,103.330357 300.598952,102.892518 301.838542,102.016827 C303.078131,101.141136 303.697917,99.9924522 303.697917,98.5707418 C303.697917,97.8289798 303.460332,97.2366094 302.985156,96.7936126 C302.50998,96.3506159 301.869535,95.9951936 301.063802,95.7273352 C300.15477,95.4182677 299.101134,95.1916216 297.902865,95.0473901 C296.704595,94.9031586 295.444364,94.7589293 294.122135,94.6146978 C292.799907,94.4704663 291.482862,94.2850286 290.170964,94.0583791 C288.859065,93.8317296 287.645318,93.5020626 286.529687,93.0693681 C285.827253,92.8015096 285.186808,92.4718426 284.608333,92.0803571 C284.029858,91.6888717 283.528865,91.2252774 283.105339,90.6895604 C282.681812,90.1538435 282.35126,89.5357178 282.113672,88.8351648 C281.876084,88.1346119 281.757292,87.3310485 281.757292,86.4244505 C281.757292,85.0439491 282.036195,83.8231509 282.59401,82.7620192 C283.151826,81.7008876 283.921393,80.8097564 284.902734,80.0885989 C285.884076,79.3674414 287.041009,78.8214304 288.373568,78.4505495 C289.706126,78.0796685 291.157457,77.8942308 292.727604,77.8942308 C294.793587,77.8942308 296.647778,78.1981426 298.290234,78.8059753 C299.932691,79.413808 301.342702,80.2431266 302.520312,81.293956 L302.520312,79.9031593 C302.520312,79.1820019 302.690754,78.6668971 303.031641,78.3578297 C303.372528,78.0487622 303.976819,77.8942308 304.844531,77.8942308 C305.712244,77.8942308 306.316535,78.0487622 306.657422,78.3578297 C306.998309,78.6668971 307.16875,79.1820019 307.16875,79.9031593 L307.16875,85.7754121 C307.16875,86.4965695 306.998309,87.0116743 306.657422,87.3207418 C306.316535,87.6298092 305.712244,87.7843407 304.844531,87.7843407 C304.142097,87.7843407 303.646269,87.5164862 303.357031,86.9807692 C302.881855,86.0947758 302.308554,85.353025 301.637109,84.7554945 C300.965665,84.157964 300.190933,83.6840677 299.312891,83.3337912 C298.434848,82.9835147 297.469016,82.7362645 296.415365,82.592033 C295.361713,82.4478015 294.23577,82.3756868 293.0375,82.3756868 C291.033497,82.3756868 289.468539,82.725958 288.342578,83.426511 C287.216618,84.1270639 286.653646,85.1263671 286.653646,86.4244505 C286.653646,87.104399 286.875736,87.65041 287.319922,88.0625 C287.764108,88.47459 288.378729,88.804257 289.163802,89.051511 C290.031515,89.339974 291.043831,89.5511669 292.200781,89.6850962 C293.357731,89.8190254 294.576643,89.9529526 295.857552,90.0868819 C297.138461,90.2208111 298.429681,90.3856446 299.73125,90.5813874 C301.032819,90.7771301 302.241401,91.0810419 303.357031,91.4931319 C304.121445,91.7815948 304.823868,92.126715 305.464323,92.5285027 C306.104778,92.9302905 306.65742,93.4144889 307.122266,93.9811126 C307.587112,94.5477363 307.948653,95.2070704 308.206901,95.9591346 C308.465149,96.7111988 308.594271,97.5817258 308.594271,98.5707418 C308.594271,99.9512432 308.330862,101.208099 307.804036,102.341346 C307.277211,103.474594 306.502479,104.448142 305.479818,105.262019 C304.457156,106.075897 303.196926,106.704325 301.699089,107.147321 C300.201251,107.590318 298.491676,107.811813 296.570312,107.811813 C294.318392,107.811813 292.350573,107.50275 290.666797,106.884615 C288.983021,106.26648 287.511031,105.32899 286.250781,104.072115 L286.250781,105.802885 Z M253.370833,93.9965659 C253.536112,97.1078452 254.398647,99.4412697 255.958464,100.996909 C257.51828,102.552549 259.744343,103.330357 262.636719,103.330357 C264.723361,103.330357 266.747994,103.093409 268.710677,102.619505 C270.673361,102.145602 272.367441,101.49657 273.792969,100.67239 C274.454083,100.301509 275.006725,100.270603 275.450911,100.57967 C275.895098,100.888738 276.251474,101.372936 276.520052,102.03228 C276.80929,102.691624 276.871268,103.283995 276.70599,103.809409 C276.540711,104.334824 276.117191,104.772663 275.435417,105.12294 C274.629683,105.514425 273.736159,105.874998 272.754818,106.20467 C271.773476,106.534342 270.73017,106.81765 269.62487,107.054602 C268.519569,107.291553 267.378131,107.476991 266.200521,107.61092 C265.022911,107.74485 263.834989,107.811813 262.636719,107.811813 C260.364138,107.811813 258.349835,107.466693 256.59375,106.776442 C254.837665,106.086192 253.360509,105.097191 252.16224,103.809409 C250.96397,102.521628 250.049786,100.95571 249.419661,99.1116071 C248.789537,97.2675045 248.474479,95.1813303 248.474479,92.853022 C248.474479,90.6071316 248.841186,88.5621658 249.574609,86.7180632 C250.308033,84.8739606 251.325514,83.2977401 252.627083,81.9893544 C253.928652,80.6809687 255.483281,79.6713634 257.291016,78.9605082 C259.09875,78.249653 261.087229,77.8942308 263.25651,77.8942308 C265.549751,77.8942308 267.574384,78.249653 269.330469,78.9605082 C271.086554,79.6713634 272.568874,80.6552135 273.777474,81.9120879 C274.986074,83.1689623 275.920917,84.6627661 276.582031,86.393544 C277.243146,88.1243218 277.635676,90.0199073 277.759635,92.0803571 C277.759635,92.7809101 277.609854,93.2754106 277.310286,93.5638736 C277.010719,93.8523366 276.509726,93.9965659 275.807292,93.9965659 L253.370833,93.9965659 Z M263.25651,82.3756868 C260.674032,82.3756868 258.561597,83.0195677 256.919141,84.3073489 C255.276684,85.5951301 254.197225,87.3825435 253.680729,89.6696429 L272.615365,89.6696429 C272.181508,87.3413345 271.200181,85.543619 269.671354,84.2764423 C268.142527,83.0092656 266.004267,82.3756868 263.25651,82.3756868 Z M218.022049,82.7774725 L214.861111,82.7774725 C214.158677,82.7774725 213.657684,82.6229411 213.358116,82.3138736 C213.058549,82.0048061 212.908767,81.4587951 212.908767,80.6758242 C212.908767,79.8928532 213.058549,79.3468422 213.358116,79.0377747 C213.657684,78.7287072 214.158677,78.5741758 214.861111,78.5741758 L220.408247,78.5741758 C221.110681,78.5741758 221.611674,78.7287072 221.911241,79.0377747 C222.210809,79.3468422 222.36059,79.8928532 222.36059,80.6758242 L222.36059,84.3846154 C223.724139,82.262352 225.314921,80.6500742 227.132986,79.5477335 C228.951051,78.4453928 230.924034,77.8942308 233.051997,77.8942308 C234.477524,77.8942308 235.758414,78.1311789 236.894705,78.6050824 C238.030995,79.0789859 238.996828,79.748622 239.792231,80.614011 C240.587634,81.4793999 241.19709,82.5353646 241.620616,83.7819368 C242.044143,85.028509 242.255903,86.4244428 242.255903,87.9697802 L242.255903,102.928571 L244.797049,102.928571 C245.499483,102.928571 246.000476,103.083103 246.300043,103.39217 C246.599611,103.701238 246.749392,104.247249 246.749392,105.03022 C246.749392,105.813191 246.599611,106.359202 246.300043,106.668269 C246.000476,106.977337 245.499483,107.131868 244.797049,107.131868 L234.756424,107.131868 C234.05399,107.131868 233.552996,106.977337 233.253429,106.668269 C232.953861,106.359202 232.80408,105.813191 232.80408,105.03022 C232.80408,104.247249 232.953861,103.701238 233.253429,103.39217 C233.552996,103.083103 234.05399,102.928571 234.756424,102.928571 L237.607465,102.928571 L237.607465,88.4333791 C237.607465,87.5473857 237.504168,86.7386712 237.297569,86.0072115 C237.090971,85.2757518 236.781078,84.6473241 236.367882,84.1219093 C235.954685,83.5964946 235.433033,83.1895619 234.802908,82.9010989 C234.172783,82.6126359 233.434206,82.4684066 232.587153,82.4684066 C231.264924,82.4684066 230.004693,82.7568652 228.806424,83.3337912 C227.608154,83.9107172 226.554518,84.7142806 225.645486,85.7445055 C224.736454,86.7747304 224.013371,88.0006797 223.476215,89.4223901 C222.93906,90.8441005 222.670486,92.3997168 222.670486,94.0892857 L222.670486,102.928571 L225.521528,102.928571 C226.223962,102.928571 226.724955,103.083103 227.024523,103.39217 C227.32409,103.701238 227.473872,104.247249 227.473872,105.03022 C227.473872,105.813191 227.32409,106.359202 227.024523,106.668269 C226.724955,106.977337 226.223962,107.131868 225.521528,107.131868 L215.480903,107.131868 C214.778469,107.131868 214.277475,106.977337 213.977908,106.668269 C213.678341,106.359202 213.528559,105.813191 213.528559,105.03022 C213.528559,104.247249 213.678341,103.701238 213.977908,103.39217 C214.277475,103.083103 214.778469,102.928571 215.480903,102.928571 L218.022049,102.928571 L218.022049,82.7774725 Z M192.558941,82.7774725 L184.718576,82.7774725 C184.016142,82.7774725 183.515149,82.6229411 183.215582,82.3138736 C182.916014,82.0048061 182.766233,81.4587951 182.766233,80.6758242 C182.766233,79.8928532 182.916014,79.3468422 183.215582,79.0377747 C183.515149,78.7287072 184.016142,78.5741758 184.718576,78.5741758 L195.255035,78.5741758 C195.957469,78.5741758 196.458462,78.7287072 196.75803,79.0377747 C197.057597,79.3468422 197.207378,79.8928532 197.207378,80.6758242 L197.207378,102.928571 L207.155035,102.928571 C207.857469,102.928571 208.358462,103.083103 208.65803,103.39217 C208.957597,103.701238 209.107378,104.247249 209.107378,105.03022 C209.107378,105.813191 208.957597,106.359202 208.65803,106.668269 C208.358462,106.977337 207.857469,107.131868 207.155035,107.131868 L182.859201,107.131868 C182.156767,107.131868 181.655774,106.977337 181.356207,106.668269 C181.056639,106.359202 180.906858,105.813191 180.906858,105.03022 C180.906858,104.247249 181.056639,103.701238 181.356207,103.39217 C181.655774,103.083103 182.156767,102.928571 182.859201,102.928571 L192.558941,102.928571 L192.558941,82.7774725 Z M197.207378,71.032967 C197.207378,71.7541245 197.011113,72.2692292 196.618576,72.5782967 C196.22604,72.8873642 195.440978,73.0418956 194.263368,73.0418956 C193.085758,73.0418956 192.300696,72.8873642 191.90816,72.5782967 C191.515623,72.2692292 191.319358,71.7541245 191.319358,71.032967 L191.319358,67.0151099 C191.319358,66.2939524 191.515623,65.7788477 191.90816,65.4697802 C192.300696,65.1607127 193.085758,65.0061813 194.263368,65.0061813 C195.440978,65.0061813 196.22604,65.1607127 196.618576,65.4697802 C197.011113,65.7788477 197.207378,66.2939524 197.207378,67.0151099 L197.207378,71.032967 Z M160.143837,70.7857143 L151.683681,70.7857143 C150.981246,70.7857143 150.480253,70.6311829 150.180686,70.3221154 C149.881118,70.0130479 149.731337,69.4670369 149.731337,68.6840659 C149.731337,67.901095 149.881118,67.355084 150.180686,67.0460165 C150.480253,66.736949 150.981246,66.5824176 151.683681,66.5824176 L162.839931,66.5824176 C163.542365,66.5824176 164.043358,66.736949 164.342925,67.0460165 C164.642493,67.355084 164.792274,67.901095 164.792274,68.6840659 L164.792274,102.928571 L174.739931,102.928571 C175.442365,102.928571 175.943358,103.083103 176.242925,103.39217 C176.542493,103.701238 176.692274,104.247249 176.692274,105.03022 C176.692274,105.813191 176.542493,106.359202 176.242925,106.668269 C175.943358,106.977337 175.442365,107.131868 174.739931,107.131868 L150.444097,107.131868 C149.741663,107.131868 149.24067,106.977337 148.941102,106.668269 C148.641535,106.359202 148.491753,105.813191 148.491753,105.03022 C148.491753,104.247249 148.641535,103.701238 148.941102,103.39217 C149.24067,103.083103 149.741663,102.928571 150.444097,102.928571 L160.143837,102.928571 L160.143837,70.7857143 Z" id="s" class="logo__character" sketch:type="MSShapeGroup"></path>
            <path d="M284.195139,29.0625 C284.360417,32.1737793 285.222952,34.5072038 286.782769,36.0628434 C288.342586,37.6184831 290.568649,38.3962912 293.461024,38.3962912 C295.547667,38.3962912 297.572299,38.159343 299.534983,37.6854396 C301.497666,37.2115361 303.191746,36.5625041 304.617274,35.7383242 C305.278389,35.3674432 305.831031,35.3365369 306.275217,35.6456044 C306.719403,35.9546719 307.07578,36.4388703 307.344358,37.0982143 C307.633595,37.7575582 307.695574,38.3499287 307.530295,38.8753434 C307.365017,39.4007581 306.941496,39.8385971 306.259722,40.1888736 C305.453989,40.5803591 304.560465,40.9409324 303.579123,41.2706044 C302.597782,41.6002764 301.554476,41.883584 300.449175,42.1205357 C299.343875,42.3574874 298.202436,42.5429252 297.024826,42.6768544 C295.847216,42.8107836 294.659294,42.8777473 293.461024,42.8777473 C291.188443,42.8777473 289.174141,42.5326271 287.418056,41.8423764 C285.66197,41.1521257 284.184815,40.1631246 282.986545,38.8753434 C281.788275,37.5875622 280.874092,36.0216438 280.243967,34.1775412 C279.613842,32.3334386 279.298785,30.2472644 279.298785,27.918956 C279.298785,25.6730657 279.665491,23.6280999 280.398915,21.7839973 C281.132339,19.9398946 282.14982,18.3636741 283.451389,17.0552885 C284.752958,15.7469028 286.307586,14.7372975 288.115321,14.0264423 C289.923056,13.3155871 291.911534,12.9601648 294.080816,12.9601648 C296.374057,12.9601648 298.398689,13.3155871 300.154774,14.0264423 C301.910859,14.7372975 303.39318,15.7211476 304.60178,16.978022 C305.810379,18.2348964 306.745222,19.7287001 307.406337,21.459478 C308.067451,23.1902559 308.459982,25.0858413 308.583941,27.1462912 C308.583941,27.8468442 308.434159,28.3413447 308.134592,28.6298077 C307.835025,28.9182707 307.334031,29.0625 306.631597,29.0625 L284.195139,29.0625 Z M294.080816,17.4416209 C291.498338,17.4416209 289.385902,18.0855018 287.743446,19.373283 C286.10099,20.6610641 285.02153,22.4484776 284.505035,24.7355769 L303.43967,24.7355769 C303.005814,22.4072686 302.024487,20.609553 300.49566,19.3423764 C298.966833,18.0751997 296.828573,17.4416209 294.080816,17.4416209 Z M275.683333,37.9945055 C276.385767,37.9945055 276.886761,38.1490369 277.186328,38.4581044 C277.485896,38.7671719 277.635677,39.3131829 277.635677,40.0961538 C277.635677,40.8791248 277.485896,41.4251358 277.186328,41.7342033 C276.886761,42.0432708 276.385767,42.1978022 275.683333,42.1978022 L270.75599,42.1978022 C270.053556,42.1978022 269.552562,42.0432708 269.252995,41.7342033 C268.953427,41.4251358 268.803646,40.8791248 268.803646,40.0961538 L268.803646,37.6236264 C267.522737,39.2925908 266.030087,40.5855037 264.325651,41.5024038 C262.621215,42.419304 260.736035,42.8777473 258.670052,42.8777473 C256.748688,42.8777473 254.97197,42.5532313 253.339844,41.9041896 C251.707718,41.2551479 250.297706,40.3228083 249.109766,39.1071429 C247.921826,37.8914774 246.986983,36.4079758 246.305208,34.6565934 C245.623434,32.905211 245.282552,30.9169067 245.282552,28.6916209 C245.282552,26.466335 245.623434,24.4780307 246.305208,22.7266484 C246.986983,20.975266 247.921826,19.4917643 249.109766,18.2760989 C250.297706,17.0604335 251.707718,16.1280939 253.339844,15.4790522 C254.97197,14.8300105 256.748688,14.5054945 258.670052,14.5054945 C260.736035,14.5054945 262.579896,14.9227293 264.201693,15.7572115 C265.823489,16.5916937 267.25416,17.7815857 268.49375,19.3269231 L268.49375,5.85164835 L262.233854,5.85164835 C261.53142,5.85164835 261.030427,5.69711693 260.730859,5.38804945 C260.431292,5.07898197 260.28151,4.53297095 260.28151,3.75 C260.28151,2.96702905 260.431292,2.42101803 260.730859,2.11195055 C261.030427,1.80288307 261.53142,1.64835165 262.233854,1.64835165 L271.189844,1.64835165 C271.892278,1.64835165 272.393271,1.80288307 272.692839,2.11195055 C272.992406,2.42101803 273.142188,2.96702905 273.142188,3.75 L273.142188,37.9945055 L275.683333,37.9945055 Z M268.49375,28.6916209 C268.49375,27.166888 268.256166,25.8070115 267.78099,24.6119505 C267.305814,23.4168896 266.644709,22.4124354 265.797656,21.5985577 C264.950603,20.78468 263.943452,20.1614033 262.776172,19.7287088 C261.608892,19.2960143 260.343496,19.0796703 258.979948,19.0796703 C257.57508,19.0796703 256.325179,19.3166185 255.230208,19.790522 C254.135238,20.2644254 253.215889,20.9289106 252.472135,21.7839973 C251.728382,22.6390839 251.160245,23.6538403 250.767708,24.8282967 C250.375172,26.0027531 250.178906,27.290515 250.178906,28.6916209 C250.178906,30.0927268 250.375172,31.3804886 250.767708,32.5549451 C251.160245,33.7294015 251.728382,34.7441578 252.472135,35.5992445 C253.215889,36.4543312 254.135238,37.1188163 255.230208,37.5927198 C256.325179,38.0666232 257.57508,38.3035714 258.979948,38.3035714 C260.343496,38.3035714 261.608892,38.0872274 262.776172,37.654533 C263.943452,37.2218385 264.950603,36.5985618 265.797656,35.7846841 C266.644709,34.9708064 267.305814,33.9663521 267.78099,32.7712912 C268.256166,31.5762303 268.49375,30.2163538 268.49375,28.6916209 Z M228.011024,17.8434066 L220.17066,17.8434066 C219.468226,17.8434066 218.967232,17.6888752 218.667665,17.3798077 C218.368097,17.0707402 218.218316,16.5247292 218.218316,15.7417582 C218.218316,14.9587873 218.368097,14.4127763 218.667665,14.1037088 C218.967232,13.7946413 219.468226,13.6401099 220.17066,13.6401099 L230.707118,13.6401099 C231.409552,13.6401099 231.910545,13.7946413 232.210113,14.1037088 C232.50968,14.4127763 232.659462,14.9587873 232.659462,15.7417582 L232.659462,37.9945055 L242.607118,37.9945055 C243.309552,37.9945055 243.810545,38.1490369 244.110113,38.4581044 C244.40968,38.7671719 244.559462,39.3131829 244.559462,40.0961538 C244.559462,40.8791248 244.40968,41.4251358 244.110113,41.7342033 C243.810545,42.0432708 243.309552,42.1978022 242.607118,42.1978022 L218.311285,42.1978022 C217.608851,42.1978022 217.107857,42.0432708 216.80829,41.7342033 C216.508722,41.4251358 216.358941,40.8791248 216.358941,40.0961538 C216.358941,39.3131829 216.508722,38.7671719 216.80829,38.4581044 C217.107857,38.1490369 217.608851,37.9945055 218.311285,37.9945055 L228.011024,37.9945055 L228.011024,17.8434066 Z M232.659462,6.0989011 C232.659462,6.82005855 232.463196,7.33516329 232.07066,7.64423077 C231.678123,7.95329825 230.893061,8.10782967 229.715451,8.10782967 C228.537841,8.10782967 227.75278,7.95329825 227.360243,7.64423077 C226.967706,7.33516329 226.771441,6.82005855 226.771441,6.0989011 L226.771441,2.08104396 C226.771441,1.3598865 226.967706,0.844781765 227.360243,0.535714286 C227.75278,0.226646806 228.537841,0.0721153846 229.715451,0.0721153846 C230.893061,0.0721153846 231.678123,0.226646806 232.07066,0.535714286 C232.463196,0.844781765 232.659462,1.3598865 232.659462,2.08104396 L232.659462,6.0989011 Z M210.636198,37.9945055 C211.338632,37.9945055 211.839625,38.1490369 212.139193,38.4581044 C212.43876,38.7671719 212.588542,39.3131829 212.588542,40.0961538 C212.588542,40.8791248 212.43876,41.4251358 212.139193,41.7342033 C211.839625,42.0432708 211.338632,42.1978022 210.636198,42.1978022 L205.708854,42.1978022 C205.00642,42.1978022 204.505427,42.0484218 204.205859,41.7496566 C203.906292,41.4508914 203.75651,40.9100314 203.75651,40.1270604 L203.75651,36.3873626 C202.392962,38.509626 200.802179,40.1219038 198.984115,41.2242445 C197.16605,42.3265852 195.193066,42.8777473 193.065104,42.8777473 C191.639576,42.8777473 190.358686,42.6407991 189.222396,42.1668956 C188.086105,41.6929921 187.120273,41.023356 186.32487,40.157967 C185.529467,39.2925781 184.920011,38.2366134 184.496484,36.9900412 C184.072958,35.743469 183.861198,34.3475352 183.861198,32.8021978 L183.861198,17.8434066 L181.320052,17.8434066 C180.617618,17.8434066 180.116625,17.6888752 179.817057,17.3798077 C179.51749,17.0707402 179.367708,16.5247292 179.367708,15.7417582 C179.367708,14.9587873 179.51749,14.4127763 179.817057,14.1037088 C180.116625,13.7946413 180.617618,13.6401099 181.320052,13.6401099 L186.557292,13.6401099 C187.259726,13.6401099 187.760719,13.7946413 188.060286,14.1037088 C188.359854,14.4127763 188.509635,14.9587873 188.509635,15.7417582 L188.509635,32.3385989 C188.509635,33.2245923 188.612933,34.0333068 188.819531,34.7647665 C189.02613,35.4962262 189.336022,36.124654 189.749219,36.6500687 C190.162415,37.1754834 190.684068,37.5824161 191.314193,37.8708791 C191.944317,38.1593421 192.682895,38.3035714 193.529948,38.3035714 C194.852177,38.3035714 196.112407,38.0151128 197.310677,37.4381868 C198.508947,36.8612609 199.562582,36.0576975 200.471615,35.0274725 C201.380647,33.9972476 202.10373,32.7712983 202.640885,31.3495879 C203.178041,29.9278775 203.446615,28.3722612 203.446615,26.6826923 L203.446615,17.8434066 L199.046094,17.8434066 C198.34366,17.8434066 197.842666,17.6888752 197.543099,17.3798077 C197.243531,17.0707402 197.09375,16.5247292 197.09375,15.7417582 C197.09375,14.9587873 197.243531,14.4127763 197.543099,14.1037088 C197.842666,13.7946413 198.34366,13.6401099 199.046094,13.6401099 L206.142708,13.6401099 C206.845142,13.6401099 207.346136,13.7946413 207.645703,14.1037088 C207.945271,14.4127763 208.095052,14.9587873 208.095052,15.7417582 L208.095052,37.9945055 L210.636198,37.9945055 Z M148.966927,48.7190934 C150.392455,49.3166239 151.89027,49.7544629 153.460417,50.0326236 C155.030563,50.3107844 156.569697,50.4498626 158.077865,50.4498626 C159.462073,50.4498626 160.66549,50.269576 161.688151,49.9089973 C162.710812,49.5484185 163.557853,49.0333138 164.229297,48.3636676 C164.900741,47.6940214 165.401734,46.895609 165.732292,45.9684066 C166.062849,45.0412042 166.228125,44.0109947 166.228125,42.8777473 L166.228125,36.510989 C164.988535,38.0563264 163.557864,39.2462184 161.936068,40.0807005 C160.314271,40.9151827 158.47041,41.3324176 156.404427,41.3324176 C154.483063,41.3324176 152.706345,41.0079016 151.074219,40.3588599 C149.442093,39.7098182 148.032081,38.7774786 146.844141,37.5618132 C145.656201,36.3461478 144.721358,34.8626461 144.039583,33.1112637 C143.357809,31.3598814 143.016927,29.3715771 143.016927,27.1462912 C143.016927,24.9210054 143.357809,22.9327011 144.039583,21.1813187 C144.721358,19.4299363 145.656201,17.9464346 146.844141,16.7307692 C148.032081,15.5151038 149.442093,14.5827642 151.074219,13.9337225 C152.706345,13.2846808 154.483063,12.9601648 156.404427,12.9601648 C158.47041,12.9601648 160.35559,13.4186081 162.060026,14.3355082 C163.764462,15.2524084 165.257112,16.5453213 166.538021,18.2142857 L166.538021,15.7417582 C166.538021,14.9587873 166.687802,14.4127763 166.98737,14.1037088 C167.286937,13.7946413 167.787931,13.6401099 168.490365,13.6401099 L173.417708,13.6401099 C174.120142,13.6401099 174.621136,13.7946413 174.920703,14.1037088 C175.220271,14.4127763 175.370052,14.9587873 175.370052,15.7417582 C175.370052,16.5247292 175.220271,17.0707402 174.920703,17.3798077 C174.621136,17.6888752 174.120142,17.8434066 173.417708,17.8434066 L170.876563,17.8434066 L170.876563,43.279533 C170.876563,45.1339378 170.592494,46.7874241 170.024349,48.2400412 C169.456204,49.6926584 168.624658,50.9186076 167.529688,51.9179258 C166.434717,52.917244 165.091848,53.6847501 163.501042,54.220467 C161.910235,54.756184 160.102527,55.0240385 158.077865,55.0240385 C156.28046,55.0240385 154.472752,54.869507 152.654688,54.5604396 C150.836623,54.2513721 149.111553,53.7877778 147.479427,53.1696429 C146.921612,52.9429934 146.554905,52.6030242 146.379297,52.1497253 C146.203688,51.6964263 146.250172,51.0783006 146.51875,50.2953297 C146.787328,49.5123587 147.133375,48.997254 147.556901,48.75 C147.980427,48.502746 148.450431,48.4924439 148.966927,48.7190934 Z M166.228125,27.1462912 C166.228125,25.6215583 165.990541,24.2616818 165.515365,23.0666209 C165.040189,21.87156 164.379084,20.8671057 163.532031,20.053228 C162.684978,19.2393503 161.677827,18.6160736 160.510547,18.1833791 C159.343267,17.7506846 158.077871,17.5343407 156.714323,17.5343407 C155.309455,17.5343407 154.059554,17.7712888 152.964583,18.2451923 C151.869613,18.7190958 150.950264,19.3835809 150.20651,20.2386676 C149.462757,21.0937543 148.89462,22.1085106 148.502083,23.282967 C148.109547,24.4574235 147.913281,25.7451853 147.913281,27.1462912 C147.913281,28.5473971 148.109547,29.835159 148.502083,31.0096154 C148.89462,32.1840718 149.462757,33.1988281 150.20651,34.0539148 C150.950264,34.9090015 151.869613,35.5734866 152.964583,36.0473901 C154.059554,36.5212936 155.309455,36.7582418 156.714323,36.7582418 C158.077871,36.7582418 159.343267,36.5418978 160.510547,36.1092033 C161.677827,35.6765088 162.684978,35.0532321 163.532031,34.2393544 C164.379084,33.4254767 165.040189,32.4210225 165.515365,31.2259615 C165.990541,30.0309006 166.228125,28.6710241 166.228125,27.1462912 Z" id="e" class="logo__character" sketch:type="MSShapeGroup"></path>
            <path d="M69.7782118,40.8688187 C69.7782118,41.5899761 69.6077708,42.1050809 69.2668837,42.4141484 C68.9259966,42.7232158 68.3217057,42.8777473 67.4539931,42.8777473 C66.5862804,42.8777473 65.9819896,42.7232158 65.6411024,42.4141484 C65.3002153,42.1050809 65.1297743,41.5899761 65.1297743,40.8688187 L65.1297743,33.4512363 C65.1297743,32.7300788 65.3002153,32.2149741 65.6411024,31.9059066 C65.9819896,31.5968391 66.5862804,31.4423077 67.4539931,31.4423077 C67.9085092,31.4423077 68.259721,31.5453286 68.5076389,31.7513736 C68.7555568,31.9574186 68.962152,32.2767836 69.1274306,32.709478 C69.8918441,34.7081144 71.1417448,36.1555587 72.8771701,37.0518544 C74.6125955,37.9481501 76.9161315,38.3962912 79.7878472,38.3962912 C82.2670263,38.3962912 84.1263827,37.9584522 85.3659722,37.082761 C86.6055618,36.2070698 87.2253472,35.0583862 87.2253472,33.6366758 C87.2253472,32.8949139 86.9877628,32.3025434 86.5125868,31.8595467 C86.0374108,31.41655 85.3969658,31.0611277 84.5912326,30.7932692 C83.6822003,30.4842018 82.628565,30.2575557 81.4302951,30.1133242 C80.2320253,29.9690927 78.9717948,29.8248634 77.649566,29.6806319 C76.3273371,29.5364004 75.010293,29.3509627 73.6983941,29.1243132 C72.3864952,28.8976637 71.1727486,28.5679967 70.0571181,28.1353022 C69.354684,27.8674437 68.714239,27.5377767 68.1357639,27.1462912 C67.5572888,26.7548057 67.0562955,26.2912115 66.6327691,25.7554945 C66.2092427,25.2197775 65.8786904,24.6016519 65.6411024,23.9010989 C65.4035144,23.2005459 65.2847222,22.3969826 65.2847222,21.4903846 C65.2847222,20.1098832 65.5636257,18.889085 66.121441,17.8279533 C66.6792563,16.7668216 67.4488232,15.8756904 68.4301649,15.154533 C69.4115066,14.4333755 70.5684395,13.8873645 71.9009983,13.5164835 C73.233557,13.1456025 74.684888,12.9601648 76.2550347,12.9601648 C78.3210173,12.9601648 80.1752088,13.2640766 81.8176649,13.8719093 C83.4601211,14.4797421 84.870133,15.3090607 86.0477431,16.3598901 L86.0477431,14.9690934 C86.0477431,14.247936 86.2181841,13.7328312 86.5590712,13.4237637 C86.8999583,13.1146963 87.5042491,12.9601648 88.3719618,12.9601648 C89.2396745,12.9601648 89.8439653,13.1146963 90.1848524,13.4237637 C90.5257396,13.7328312 90.6961806,14.247936 90.6961806,14.9690934 L90.6961806,20.8413462 C90.6961806,21.5625036 90.5257396,22.0776083 90.1848524,22.3866758 C89.8439653,22.6957433 89.2396745,22.8502747 88.3719618,22.8502747 C87.6695277,22.8502747 87.1736994,22.5824203 86.8844618,22.0467033 C86.4092858,21.1607099 85.8359843,20.418959 85.1645399,19.8214286 C84.4930956,19.2238981 83.7183638,18.7500018 82.8403212,18.3997253 C81.9622786,18.0494488 80.9964462,17.8021985 79.9427951,17.657967 C78.889144,17.5137355 77.7632004,17.4416209 76.5649306,17.4416209 C74.5609275,17.4416209 72.9959692,17.7918921 71.8700087,18.4924451 C70.7440482,19.192998 70.1810764,20.1923012 70.1810764,21.4903846 C70.1810764,22.1703331 70.4031662,22.7163441 70.8473524,23.1284341 C71.2915387,23.540524 71.9061593,23.8701911 72.6912326,24.1174451 C73.5589453,24.405908 74.5712616,24.617101 75.7282118,24.7510302 C76.885162,24.8849595 78.1040735,25.0188867 79.3849826,25.1528159 C80.6658918,25.2867452 81.9571115,25.4515787 83.2586806,25.6473214 C84.5602496,25.8430642 85.7688312,26.146976 86.8844618,26.5590659 C87.6488753,26.8475289 88.3512989,27.1926491 88.9917535,27.5944368 C89.6322081,27.9962245 90.1848501,28.480423 90.6496962,29.0470467 C91.1145423,29.6136704 91.4760838,30.2730045 91.7343316,31.0250687 C91.9925794,31.7771329 92.1217014,32.6476599 92.1217014,33.6366758 C92.1217014,35.0171772 91.8582926,36.2740328 91.331467,37.4072802 C90.8046415,38.5405276 90.0299096,39.5140756 89.0072483,40.3279533 C87.9845869,41.141831 86.7243564,41.7702588 85.2265191,42.2132555 C83.7286817,42.6562522 82.0191068,42.8777473 80.0977431,42.8777473 C77.8458221,42.8777473 75.8780032,42.5686844 74.1942274,41.9505495 C72.5104517,41.3324145 71.0384612,40.3949239 69.7782118,39.1380495 L69.7782118,40.8688187 Z M38.3341146,40.8688187 C38.3341146,41.5899761 38.1636736,42.1050809 37.8227865,42.4141484 C37.4818993,42.7232158 36.8776085,42.8777473 36.0098958,42.8777473 C35.1421832,42.8777473 34.5378923,42.7232158 34.1970052,42.4141484 C33.8561181,42.1050809 33.6856771,41.5899761 33.6856771,40.8688187 L33.6856771,33.4512363 C33.6856771,32.7300788 33.8561181,32.2149741 34.1970052,31.9059066 C34.5378923,31.5968391 35.1421832,31.4423077 36.0098958,31.4423077 C36.464412,31.4423077 36.8156238,31.5453286 37.0635417,31.7513736 C37.3114596,31.9574186 37.5180547,32.2767836 37.6833333,32.709478 C38.4477469,34.7081144 39.6976476,36.1555587 41.4330729,37.0518544 C43.1684983,37.9481501 45.4720343,38.3962912 48.34375,38.3962912 C50.8229291,38.3962912 52.6822855,37.9584522 53.921875,37.082761 C55.1614645,36.2070698 55.78125,35.0583862 55.78125,33.6366758 C55.78125,32.8949139 55.5436656,32.3025434 55.0684896,31.8595467 C54.5933136,31.41655 53.9528686,31.0611277 53.1471354,30.7932692 C52.2381031,30.4842018 51.1844678,30.2575557 49.9861979,30.1133242 C48.787928,29.9690927 47.5276976,29.8248634 46.2054688,29.6806319 C44.8832399,29.5364004 43.5661958,29.3509627 42.2542969,29.1243132 C40.942398,28.8976637 39.7286514,28.5679967 38.6130208,28.1353022 C37.9105868,27.8674437 37.2701418,27.5377767 36.6916667,27.1462912 C36.1131916,26.7548057 35.6121983,26.2912115 35.1886719,25.7554945 C34.7651455,25.2197775 34.4345932,24.6016519 34.1970052,23.9010989 C33.9594172,23.2005459 33.840625,22.3969826 33.840625,21.4903846 C33.840625,20.1098832 34.1195285,18.889085 34.6773437,17.8279533 C35.235159,16.7668216 36.004726,15.8756904 36.9860677,15.154533 C37.9674094,14.4333755 39.1243423,13.8873645 40.456901,13.5164835 C41.7894598,13.1456025 43.2407908,12.9601648 44.8109375,12.9601648 C46.8769201,12.9601648 48.7311116,13.2640766 50.3735677,13.8719093 C52.0160238,14.4797421 53.4260358,15.3090607 54.6036458,16.3598901 L54.6036458,14.9690934 C54.6036458,14.247936 54.7740868,13.7328312 55.114974,13.4237637 C55.4558611,13.1146963 56.0601519,12.9601648 56.9278646,12.9601648 C57.7955773,12.9601648 58.3998681,13.1146963 58.7407552,13.4237637 C59.0816423,13.7328312 59.2520833,14.247936 59.2520833,14.9690934 L59.2520833,20.8413462 C59.2520833,21.5625036 59.0816423,22.0776083 58.7407552,22.3866758 C58.3998681,22.6957433 57.7955773,22.8502747 56.9278646,22.8502747 C56.2254305,22.8502747 55.7296021,22.5824203 55.4403646,22.0467033 C54.9651886,21.1607099 54.391887,20.418959 53.7204427,19.8214286 C53.0489984,19.2238981 52.2742665,18.7500018 51.396224,18.3997253 C50.5181814,18.0494488 49.552349,17.8021985 48.4986979,17.657967 C47.4450468,17.5137355 46.3191032,17.4416209 45.1208333,17.4416209 C43.1168303,17.4416209 41.5518719,17.7918921 40.4259115,18.4924451 C39.299951,19.192998 38.7369792,20.1923012 38.7369792,21.4903846 C38.7369792,22.1703331 38.959069,22.7163441 39.4032552,23.1284341 C39.8474415,23.540524 40.462062,23.8701911 41.2471354,24.1174451 C42.1148481,24.405908 43.1271644,24.617101 44.2841146,24.7510302 C45.4410648,24.8849595 46.6599762,25.0188867 47.9408854,25.1528159 C49.2217946,25.2867452 50.5130143,25.4515787 51.8145833,25.6473214 C53.1161523,25.8430642 54.324734,26.146976 55.4403646,26.5590659 C56.2047781,26.8475289 56.9072017,27.1926491 57.5476563,27.5944368 C58.1881108,27.9962245 58.7407529,28.480423 59.205599,29.0470467 C59.670445,29.6136704 60.0319866,30.2730045 60.2902344,31.0250687 C60.5484822,31.7771329 60.6776042,32.6476599 60.6776042,33.6366758 C60.6776042,35.0171772 60.4141953,36.2740328 59.8873698,37.4072802 C59.3605442,38.5405276 58.5858124,39.5140756 57.563151,40.3279533 C56.5404897,41.141831 55.2802592,41.7702588 53.7824219,42.2132555 C52.2845845,42.6562522 50.5750096,42.8777473 48.6536458,42.8777473 C46.4017249,42.8777473 44.433906,42.5686844 42.7501302,41.9505495 C41.0663544,41.3324145 39.5943639,40.3949239 38.3341146,39.1380495 L38.3341146,40.8688187 Z M23.8929687,23.9320055 C23.8929687,23.0048031 23.7070331,22.1497292 23.3351562,21.3667582 C22.9632794,20.5837873 22.4106373,19.9090001 21.6772135,19.3423764 C20.9437897,18.7757527 20.0399359,18.3327626 18.965625,18.0133929 C17.8913141,17.6940231 16.6414134,17.5343407 15.2158854,17.5343407 C13.7077182,17.5343407 12.3183657,17.791893 11.0477865,18.3070055 C9.77720719,18.822118 8.68741774,19.5432646 7.77838542,20.470467 C6.86935309,21.3976695 6.1565998,22.4948426 5.64010417,23.7620192 C5.12360853,25.0291959 4.86536458,26.4148276 4.86536458,27.918956 C4.86536458,29.4230844 5.10294901,30.8087162 5.578125,32.0758929 C6.05330099,33.3430695 6.72990012,34.4402426 7.60794271,35.3674451 C8.48598529,36.2946475 9.54478547,37.0157941 10.784375,37.5309066 C12.0239645,38.0460191 13.3978223,38.3035714 14.9059896,38.3035714 C16.8066935,38.3035714 18.6453904,38.0151128 20.4221354,37.4381868 C22.1988804,36.8612609 23.8309821,36.006187 25.3184896,34.8729396 C25.855645,34.4608496 26.3618032,34.3063182 26.8369792,34.4093407 C27.3121552,34.5123632 27.7666645,34.9244469 28.2005208,35.6456044 C28.5517379,36.2019259 28.7015194,36.7788432 28.6498698,37.3763736 C28.5982202,37.9739041 28.2728329,38.4890088 27.6736979,38.9217033 C26.000252,40.1579732 24.0479278,41.1263701 21.8166667,41.8269231 C19.5854055,42.527476 17.2818695,42.8777473 14.9059896,42.8777473 C12.6334088,42.8777473 10.577787,42.5017208 8.7390625,41.7496566 C6.90033803,40.9975924 5.33021484,39.9519298 4.02864583,38.6126374 C2.72707683,37.273345 1.72509032,35.6919734 1.02265625,33.8684753 C0.320222182,32.0449771 -0.0309895833,30.0618239 -0.0309895833,27.918956 C-0.0309895833,25.7760882 0.33055194,23.7929349 1.05364583,21.9694368 C1.77673973,20.1459387 2.79422087,18.5645671 4.10611979,17.2252747 C5.41801871,15.8859823 6.9881419,14.8403197 8.81653646,14.0882555 C10.644931,13.3361913 12.6747284,12.9601648 14.9059896,12.9601648 C16.7860337,12.9601648 18.4904437,13.2949829 20.0192708,13.9646291 C21.5480979,14.6342753 22.8393176,15.5872191 23.8929687,16.823489 L23.8929687,14.9690934 C23.8929687,14.247936 24.0634098,13.7328312 24.4042969,13.4237637 C24.745184,13.1146963 25.3494748,12.9601648 26.2171875,12.9601648 C27.0849002,12.9601648 27.689191,13.1146963 28.0300781,13.4237637 C28.3709652,13.7328312 28.5414062,14.247936 28.5414062,14.9690934 L28.5414062,23.9320055 C28.5414062,24.6531629 28.3709652,25.1682677 28.0300781,25.4773352 C27.689191,25.7864026 27.0849002,25.9409341 26.2171875,25.9409341 C25.3494748,25.9409341 24.745184,25.7864026 24.4042969,25.4773352 C24.0634098,25.1682677 23.8929687,24.6531629 23.8929687,23.9320055 L23.8929687,23.9320055 Z" id="s" class="logo__character" sketch:type="MSShapeGroup"></path>
        </g>
    </g>
</svg>
