<?xml version="1.0" encoding="UTF-8" standalone="no"?>
<svg class="logo" preserveAspectRatio="xMinYMin meet" viewBox="0 0 180 60" version="1.1" xmlns="http://www.w3.org/2000/svg" xmlns:xlink="http://www.w3.org/1999/xlink" xmlns:sketch="http://www.bohemiancoding.com/sketch/ns">
    <!-- Generator: Sketch 3.0.4 (8054) - http://www.bohemiancoding.com/sketch -->
    <title>Exportable</title>
    <desc>Created with Sketch.</desc>
    <defs></defs>
    <g stroke="none" stroke-width="1" fill="none" fill-rule="evenodd" sketch:type="MSPage">
        <g sketch:type="MSLayerGroup">
            <path d="M175.182118,46.1174451 C174.428034,45.6641461 173.859898,45.0717756 173.477691,44.3403159 C173.095484,43.6088562 172.904384,42.7692355 172.904384,41.8214286 L172.904384,39.240728 C172.904384,37.8602266 172.64614,36.873801 172.129644,36.2814217 C171.613148,35.6890424 170.776438,35.3928571 169.619488,35.3928571 C169.268271,35.3928571 169.017774,35.3155914 168.86799,35.1610577 C168.718207,35.006524 168.643316,34.7335184 168.643316,34.342033 C168.643316,33.9505475 168.718207,33.677542 168.86799,33.5230082 C169.017774,33.3684745 169.268271,33.2912088 169.619488,33.2912088 C171.427223,33.2912088 172.813993,33.7625296 173.779839,34.7051854 C174.745686,35.6478413 175.228602,37.0978611 175.228602,39.0552885 L175.228602,41.6668956 C175.228602,42.7898408 175.497176,43.6397636 176.034332,44.2166896 C176.571487,44.7936155 177.413362,45.0820742 178.559983,45.0820742 C178.9112,45.0820742 179.161696,45.1593399 179.31148,45.3138736 C179.461264,45.4684074 179.536155,45.7414129 179.536155,46.1328984 C179.536155,46.5243838 179.461264,46.7973893 179.31148,46.9519231 C179.161696,47.1064568 178.9112,47.1837225 178.559983,47.1837225 C177.413362,47.1837225 176.571487,47.4696057 176.034332,48.0413805 C175.497176,48.6131553 175.228602,49.4605026 175.228602,50.5834478 L175.228602,53.875 C175.228602,55.8427296 174.745686,57.295325 173.779839,58.2328297 C172.813993,59.1703344 171.427223,59.6390797 169.619488,59.6390797 C169.268271,59.6390797 169.017774,59.561814 168.86799,59.4072802 C168.718207,59.2527465 168.643316,58.979741 168.643316,58.5882555 C168.643316,58.19677 168.718207,57.9237645 168.86799,57.7692308 C169.017774,57.614697 169.268271,57.5374313 169.619488,57.5374313 C170.776438,57.5374313 171.613148,57.2412461 172.129644,56.6488668 C172.64614,56.0564874 172.904384,55.0700618 172.904384,53.6895604 L172.904384,50.4289148 C172.904384,49.4811079 173.095484,48.6389117 173.477691,47.9023008 C173.859898,47.16569 174.428034,46.570744 175.182118,46.1174451 Z M157.017057,41.5587225 C157.017057,41.1981438 157.086783,40.8607502 157.226237,40.5465316 C157.365691,40.232313 157.554209,39.956732 157.791797,39.7197802 C158.029385,39.4828285 158.305706,39.2948153 158.620768,39.1557349 C158.935831,39.0166545 159.27413,38.9471154 159.635677,38.9471154 C159.997224,38.9471154 160.335524,39.0166545 160.650586,39.1557349 C160.965648,39.2948153 161.241969,39.4828285 161.479557,39.7197802 C161.717145,39.956732 161.905663,40.232313 162.045117,40.5465316 C162.184571,40.8607502 162.254297,41.1981438 162.254297,41.5587225 C162.254297,41.9193013 162.184571,42.2566949 162.045117,42.5709135 C161.905663,42.8851321 161.717145,43.1607131 161.479557,43.3976648 C161.241969,43.6346166 160.965648,43.8226298 160.650586,43.9617102 C160.335524,44.1007905 159.997224,44.1703297 159.635677,44.1703297 C159.27413,44.1703297 158.935831,44.1007905 158.620768,43.9617102 C158.305706,43.8226298 158.029385,43.6346166 157.791797,43.3976648 C157.554209,43.1607131 157.365691,42.8851321 157.226237,42.5709135 C157.086783,42.2566949 157.017057,41.9193013 157.017057,41.5587225 Z M157.869271,57.4756181 C157.755642,57.6919654 157.608443,57.8516478 157.427669,57.9546703 C157.246896,58.0576928 157.053213,58.1092033 156.846615,58.1092033 C156.701996,58.1092033 156.567709,58.0860236 156.44375,58.0396635 C156.319791,57.9933033 156.211329,57.9263397 156.118359,57.8387706 C156.02539,57.7512015 155.960829,57.645605 155.924674,57.521978 C155.88852,57.398351 155.885937,57.2541217 155.916927,57.0892857 L157.528385,49.6407967 C157.621355,49.2287067 157.889928,49.0226648 158.334115,49.0226648 L161.340104,49.0226648 C161.598352,49.0226648 161.771375,49.1179592 161.85918,49.3085508 C161.946984,49.4991424 161.918577,49.728364 161.773958,49.9962225 L157.869271,57.4756181 Z M157.037717,18.8272665 C157.037717,18.4666878 157.107443,18.1292942 157.246897,17.8150755 C157.386351,17.5008569 157.574869,17.2252759 157.812457,16.9883242 C158.050045,16.7513724 158.326366,16.5633592 158.641428,16.4242788 C158.95649,16.2851985 159.29479,16.2156593 159.656337,16.2156593 C160.017884,16.2156593 160.356183,16.2851985 160.671246,16.4242788 C160.986308,16.5633592 161.262629,16.7513724 161.500217,16.9883242 C161.737805,17.2252759 161.926323,17.5008569 162.065777,17.8150755 C162.205231,18.1292942 162.274957,18.4666878 162.274957,18.8272665 C162.274957,19.1878452 162.205231,19.5252388 162.065777,19.8394574 C161.926323,20.153676 161.737805,20.4292571 161.500217,20.6662088 C161.262629,20.9031605 160.986308,21.0911738 160.671246,21.2302541 C160.356183,21.3693345 160.017884,21.4388736 159.656337,21.4388736 C159.29479,21.4388736 158.95649,21.3693345 158.641428,21.2302541 C158.326366,21.0911738 158.050045,20.9031605 157.812457,20.6662088 C157.574869,20.4292571 157.386351,20.153676 157.246897,19.8394574 C157.107443,19.5252388 157.037717,19.1878452 157.037717,18.8272665 L157.037717,18.8272665 Z M157.037717,9.09168956 C157.037717,8.73111083 157.107443,8.39371723 157.246897,8.07949863 C157.386351,7.76528002 157.574869,7.48969899 157.812457,7.25274725 C158.050045,7.01579552 158.326366,6.82778229 158.641428,6.68870192 C158.95649,6.54962156 159.29479,6.48008242 159.656337,6.48008242 C160.017884,6.48008242 160.356183,6.54962156 160.671246,6.68870192 C160.986308,6.82778229 161.262629,7.01579552 161.500217,7.25274725 C161.737805,7.48969899 161.926323,7.76528002 162.065777,8.07949863 C162.205231,8.39371723 162.274957,8.73111083 162.274957,9.09168956 C162.274957,9.45226829 162.205231,9.78966189 162.065777,10.1038805 C161.926323,10.4180991 161.737805,10.6936801 161.500217,10.9306319 C161.262629,11.1675836 160.986308,11.3555968 160.671246,11.4946772 C160.356183,11.6337576 160.017884,11.7032967 159.656337,11.7032967 C159.29479,11.7032967 158.95649,11.6337576 158.641428,11.4946772 C158.326366,11.3555968 158.050045,11.1675836 157.812457,10.9306319 C157.574869,10.6936801 157.386351,10.4180991 157.246897,10.1038805 C157.107443,9.78966189 157.037717,9.45226829 157.037717,9.09168956 L157.037717,9.09168956 Z M59.3802083,13.6504121 C60.134292,14.1037111 60.7024286,14.698657 61.0846354,15.4352679 C61.4668422,16.1718787 61.6579427,17.0140749 61.6579427,17.9618819 L61.6579427,21.2225275 C61.6579427,21.9127782 61.7199213,22.5025731 61.8438802,22.9919299 C61.9678392,23.4812868 62.1615221,23.880493 62.4249349,24.1895604 C62.6883477,24.4986279 63.0292297,24.7226985 63.4475911,24.8617788 C63.8659526,25.0008592 64.3643634,25.0703984 64.9428385,25.0703984 C65.2940556,25.0703984 65.5445522,25.1476641 65.6943359,25.3021978 C65.8441197,25.4567315 65.9190104,25.7297371 65.9190104,26.1212225 C65.9190104,26.512708 65.8441197,26.7857135 65.6943359,26.9402473 C65.5445522,27.094781 65.2940556,27.1720467 64.9428385,27.1720467 C63.1351038,27.1720467 61.7483338,26.7033014 60.782487,25.7657967 C59.8166401,24.828292 59.333724,23.3756967 59.333724,21.407967 L59.333724,18.1164148 C59.333724,16.9934697 59.0651503,16.1461224 58.5279948,15.5743475 C57.9908393,15.0025727 57.1489641,14.7166896 56.0023438,14.7166896 C55.6511267,14.7166896 55.4006301,14.6394238 55.2508464,14.4848901 C55.1010626,14.3303564 55.0261719,14.0573509 55.0261719,13.6658654 C55.0261719,13.2743799 55.1010626,13.0013744 55.2508464,12.8468407 C55.4006301,12.6923069 55.6511267,12.6150412 56.0023438,12.6150412 C57.1489641,12.6150412 57.9908393,12.3265826 58.5279948,11.7496566 C59.0651503,11.1727306 59.333724,10.3228078 59.333724,9.19986264 L59.333724,6.58825549 C59.333724,4.63082812 59.8166401,3.18080828 60.782487,2.23815247 C61.7483338,1.29549666 63.1351038,0.824175824 64.9428385,0.824175824 C65.2940556,0.824175824 65.5445522,0.901441535 65.6943359,1.05597527 C65.8441197,1.21050901 65.9190104,1.48351453 65.9190104,1.875 C65.9190104,2.26648547 65.8441197,2.53949099 65.6943359,2.69402473 C65.5445522,2.84855846 65.2940556,2.92582418 64.9428385,2.92582418 C64.3643634,2.92582418 63.8659526,2.99536332 63.4475911,3.13444368 C63.0292297,3.27352405 62.6883477,3.49759461 62.4249349,3.80666209 C62.1615221,4.11572957 61.9678392,4.51493574 61.8438802,5.00429258 C61.7199213,5.49364942 61.6579427,6.08344435 61.6579427,6.77369505 L61.6579427,9.3543956 C61.6579427,10.3022025 61.4668422,11.1418233 61.0846354,11.873283 C60.7024286,12.6047427 60.134292,13.1971131 59.3802083,13.6504121 L59.3802083,13.6504121 Z" class="logo__punctuation" sketch:type="MSShapeGroup"></path>
            <path d="M143.625391,52.9014423 C143.625391,53.262021 143.54017,53.5195734 143.369727,53.6741071 C143.199283,53.8286409 142.897138,53.9059066 142.463281,53.9059066 C142.029425,53.9059066 141.727279,53.8286409 141.556836,53.6741071 C141.386392,53.5195734 141.301172,53.262021 141.301172,52.9014423 L141.301172,49.1926511 C141.301172,48.8320724 141.386392,48.57452 141.556836,48.4199863 C141.727279,48.2654525 142.029425,48.1881868 142.463281,48.1881868 C142.690539,48.1881868 142.866145,48.2396973 142.990104,48.3427198 C143.114063,48.4457423 143.217361,48.6054247 143.3,48.821772 C143.682207,49.8210902 144.307157,50.5448123 145.17487,50.9929602 C146.042582,51.441108 147.19435,51.6651786 148.630208,51.6651786 C149.869798,51.6651786 150.799476,51.4462591 151.419271,51.0084135 C152.039066,50.5705679 152.348958,49.9962261 152.348958,49.2853709 C152.348958,48.9144899 152.230166,48.6183047 151.992578,48.3968063 C151.75499,48.175308 151.434768,47.9975968 151.031901,47.8636676 C150.577385,47.7091338 150.050567,47.5958108 149.451432,47.5236951 C148.852297,47.4515793 148.222182,47.3794646 147.561068,47.3073489 C146.899953,47.2352332 146.241431,47.1425143 145.585482,47.0291896 C144.929532,46.9158648 144.322659,46.7510313 143.764844,46.5346841 C143.413627,46.4007548 143.093404,46.2359213 142.804167,46.0401786 C142.514929,45.8444358 142.264432,45.6126387 142.052669,45.3447802 C141.840906,45.0769217 141.67563,44.7678589 141.556836,44.4175824 C141.438042,44.0673059 141.378646,43.6655242 141.378646,43.2122253 C141.378646,42.5219746 141.518098,41.9115755 141.797005,41.3810096 C142.075913,40.8504438 142.460696,40.4048782 142.951367,40.0442995 C143.442038,39.6837207 144.020504,39.4107152 144.686784,39.2252747 C145.353063,39.0398342 146.078729,38.9471154 146.863802,38.9471154 C147.896793,38.9471154 148.823889,39.0990713 149.645117,39.4029876 C150.466345,39.706904 151.171351,40.1215633 151.760156,40.646978 L151.760156,39.9515797 C151.760156,39.5910009 151.845377,39.3334486 152.01582,39.1789148 C152.186264,39.0243811 152.488409,38.9471154 152.922266,38.9471154 C153.356122,38.9471154 153.658267,39.0243811 153.828711,39.1789148 C153.999154,39.3334486 154.084375,39.5910009 154.084375,39.9515797 L154.084375,42.887706 C154.084375,43.2482848 153.999154,43.5058371 153.828711,43.6603709 C153.658267,43.8149046 153.356122,43.8921703 152.922266,43.8921703 C152.571049,43.8921703 152.323134,43.7582431 152.178516,43.4903846 C151.940928,43.0473879 151.654277,42.6765125 151.318555,42.3777473 C150.982833,42.078982 150.595467,41.8420338 150.156445,41.6668956 C149.717424,41.4917574 149.234508,41.3681322 148.707682,41.2960165 C148.180857,41.2239007 147.617885,41.1878434 147.01875,41.1878434 C146.016748,41.1878434 145.234269,41.362979 144.671289,41.7132555 C144.108309,42.063532 143.826823,42.5631836 143.826823,43.2122253 C143.826823,43.5521995 143.937868,43.825205 144.159961,44.03125 C144.382054,44.237295 144.689364,44.4021285 145.081901,44.5257555 C145.515757,44.669987 146.021916,44.7755835 146.600391,44.8425481 C147.178866,44.9095127 147.788321,44.9764763 148.428776,45.0434409 C149.069231,45.1104056 149.71484,45.1928223 150.365625,45.2906937 C151.01641,45.388565 151.6207,45.5405209 152.178516,45.7465659 C152.560722,45.8907974 152.911934,46.0633575 153.232161,46.2642514 C153.552389,46.4651452 153.82871,46.7072445 154.061133,46.9905563 C154.293556,47.2738682 154.474327,47.6035352 154.603451,47.9795673 C154.732574,48.3555994 154.797135,48.7908629 154.797135,49.2853709 C154.797135,49.9756216 154.665431,50.6040494 154.402018,51.1706731 C154.138605,51.7372968 153.75124,52.2240708 153.239909,52.6310096 C152.728578,53.0379485 152.098463,53.3521624 151.349544,53.5736607 C150.600626,53.7951591 149.745838,53.9059066 148.785156,53.9059066 C147.659196,53.9059066 146.675286,53.7513752 145.833398,53.4423077 C144.991511,53.1332402 144.255515,52.6644949 143.625391,52.0360577 L143.625391,52.9014423 Z M127.185417,46.998283 C127.268056,48.5539226 127.699323,49.7206348 128.479232,50.4984547 C129.25914,51.2762745 130.372172,51.6651786 131.818359,51.6651786 C132.861681,51.6651786 133.873997,51.5467045 134.855339,51.3097527 C135.83668,51.072801 136.68372,50.748285 137.396484,50.3361951 C137.727042,50.1507546 138.003363,50.1353014 138.225456,50.2898352 C138.447549,50.4443689 138.625737,50.6864681 138.760026,51.0161401 C138.904645,51.3458121 138.935634,51.6419973 138.852995,51.9047047 C138.770355,52.167412 138.558595,52.3863315 138.217708,52.5614698 C137.814842,52.7572125 137.36808,52.9374992 136.877409,53.1023352 C136.386738,53.2671712 135.865085,53.408825 135.312435,53.5273008 C134.759785,53.6457767 134.189065,53.7384955 133.60026,53.8054602 C133.011455,53.8724248 132.417494,53.9059066 131.818359,53.9059066 C130.682069,53.9059066 129.674918,53.7333465 128.796875,53.3882212 C127.918832,53.0430958 127.180255,52.5485953 126.58112,51.9047047 C125.981985,51.2608141 125.524893,50.4778549 125.209831,49.5558036 C124.894768,48.6337523 124.73724,47.5906652 124.73724,46.426511 C124.73724,45.3035658 124.920593,44.2810829 125.287305,43.3590316 C125.654017,42.4369803 126.162757,41.64887 126.813542,40.9946772 C127.464326,40.3404844 128.24164,39.8356817 129.145508,39.4802541 C130.049375,39.1248265 131.043614,38.9471154 132.128255,38.9471154 C133.274876,38.9471154 134.287192,39.1248265 135.165234,39.4802541 C136.043277,39.8356817 136.784437,40.3276067 137.388737,40.956044 C137.993037,41.5844812 138.460458,42.331383 138.791016,43.196772 C139.121573,44.0621609 139.317838,45.0099536 139.379818,46.0401786 C139.379818,46.390455 139.304927,46.6377053 139.155143,46.7819368 C139.005359,46.9261683 138.754863,46.998283 138.403646,46.998283 L127.185417,46.998283 Z M132.128255,41.1878434 C130.837016,41.1878434 129.780798,41.5097839 128.95957,42.1536745 C128.138342,42.797565 127.598612,43.6912718 127.340365,44.8348214 L136.807682,44.8348214 C136.590754,43.6706673 136.100091,42.7718095 135.335677,42.1382212 C134.571264,41.5046328 133.502134,41.1878434 132.128255,41.1878434 Z M109.511024,41.3887363 L107.930556,41.3887363 C107.579339,41.3887363 107.328842,41.3114706 107.179058,41.1569368 C107.029274,41.0024031 106.954384,40.7293976 106.954384,40.3379121 C106.954384,39.9464266 107.029274,39.6734211 107.179058,39.5188874 C107.328842,39.3643536 107.579339,39.2870879 107.930556,39.2870879 L110.704123,39.2870879 C111.05534,39.2870879 111.305837,39.3643536 111.455621,39.5188874 C111.605404,39.6734211 111.680295,39.9464266 111.680295,40.3379121 L111.680295,42.1923077 C112.362069,41.131176 113.157461,40.3250371 114.066493,39.7738668 C114.975525,39.2226964 115.962017,38.9471154 117.025998,38.9471154 C117.738762,38.9471154 118.379207,39.0655895 118.947352,39.3025412 C119.515498,39.5394929 119.998414,39.874311 120.396115,40.3070055 C120.793817,40.7397 121.098545,41.2676823 121.310308,41.8909684 C121.522071,42.5142545 121.627951,43.2122214 121.627951,43.9848901 L121.627951,51.4642857 L122.898524,51.4642857 C123.249741,51.4642857 123.500238,51.5415514 123.650022,51.6960852 C123.799805,51.8506189 123.874696,52.1236244 123.874696,52.5151099 C123.874696,52.9065954 123.799805,53.1796009 123.650022,53.3341346 C123.500238,53.4886684 123.249741,53.5659341 122.898524,53.5659341 L117.878212,53.5659341 C117.526995,53.5659341 117.276498,53.4886684 117.126714,53.3341346 C116.976931,53.1796009 116.90204,52.9065954 116.90204,52.5151099 C116.90204,52.1236244 116.976931,51.8506189 117.126714,51.6960852 C117.276498,51.5415514 117.526995,51.4642857 117.878212,51.4642857 L119.303733,51.4642857 L119.303733,44.2166896 C119.303733,43.7736928 119.252084,43.3693356 119.148785,43.0036058 C119.045486,42.6378759 118.890539,42.323662 118.683941,42.0609547 C118.477343,41.7982473 118.216516,41.5947809 117.901454,41.4505495 C117.586392,41.306318 117.217103,41.2342033 116.793576,41.2342033 C116.132462,41.2342033 115.502347,41.3784326 114.903212,41.6668956 C114.304077,41.9553586 113.777259,42.3571403 113.322743,42.8722527 C112.868227,43.3873652 112.506685,44.0003399 112.238108,44.7111951 C111.96953,45.4220503 111.835243,46.1998584 111.835243,47.0446429 L111.835243,51.4642857 L113.260764,51.4642857 C113.611981,51.4642857 113.862478,51.5415514 114.012261,51.6960852 C114.162045,51.8506189 114.236936,52.1236244 114.236936,52.5151099 C114.236936,52.9065954 114.162045,53.1796009 114.012261,53.3341346 C113.862478,53.4886684 113.611981,53.5659341 113.260764,53.5659341 L108.240451,53.5659341 C107.889234,53.5659341 107.638738,53.4886684 107.488954,53.3341346 C107.33917,53.1796009 107.26428,52.9065954 107.26428,52.5151099 C107.26428,52.1236244 107.33917,51.8506189 107.488954,51.6960852 C107.638738,51.5415514 107.889234,51.4642857 108.240451,51.4642857 L109.511024,51.4642857 L109.511024,41.3887363 Z M96.7794705,41.3887363 L92.8592882,41.3887363 C92.5080712,41.3887363 92.2575745,41.3114706 92.1077908,41.1569368 C91.9580071,41.0024031 91.8831163,40.7293976 91.8831163,40.3379121 C91.8831163,39.9464266 91.9580071,39.6734211 92.1077908,39.5188874 C92.2575745,39.3643536 92.5080712,39.2870879 92.8592882,39.2870879 L98.1275174,39.2870879 C98.4787344,39.2870879 98.729231,39.3643536 98.8790148,39.5188874 C99.0287985,39.6734211 99.1036892,39.9464266 99.1036892,40.3379121 L99.1036892,51.4642857 L104.077517,51.4642857 C104.428734,51.4642857 104.679231,51.5415514 104.829015,51.6960852 C104.978798,51.8506189 105.053689,52.1236244 105.053689,52.5151099 C105.053689,52.9065954 104.978798,53.1796009 104.829015,53.3341346 C104.679231,53.4886684 104.428734,53.5659341 104.077517,53.5659341 L91.9296007,53.5659341 C91.5783837,53.5659341 91.327887,53.4886684 91.1781033,53.3341346 C91.0283196,53.1796009 90.9534288,52.9065954 90.9534288,52.5151099 C90.9534288,52.1236244 91.0283196,51.8506189 91.1781033,51.6960852 C91.327887,51.5415514 91.5783837,51.4642857 91.9296007,51.4642857 L96.7794705,51.4642857 L96.7794705,41.3887363 Z M99.1036892,35.5164835 C99.1036892,35.8770622 99.0055565,36.1346146 98.8092882,36.2891484 C98.6130199,36.4436821 98.2204891,36.5209478 97.631684,36.5209478 C97.042879,36.5209478 96.6503482,36.4436821 96.4540799,36.2891484 C96.2578115,36.1346146 96.1596788,35.8770622 96.1596788,35.5164835 L96.1596788,33.5075549 C96.1596788,33.1469762 96.2578115,32.8894238 96.4540799,32.7348901 C96.6503482,32.5803564 97.042879,32.5030907 97.631684,32.5030907 C98.2204891,32.5030907 98.6130199,32.5803564 98.8092882,32.7348901 C99.0055565,32.8894238 99.1036892,33.1469762 99.1036892,33.5075549 L99.1036892,35.5164835 Z M80.5719184,35.3928571 L76.3418403,35.3928571 C75.9906232,35.3928571 75.7401266,35.3155914 75.5903429,35.1610577 C75.4405591,35.006524 75.3656684,34.7335184 75.3656684,34.342033 C75.3656684,33.9505475 75.4405591,33.677542 75.5903429,33.5230082 C75.7401266,33.3684745 75.9906232,33.2912088 76.3418403,33.2912088 L81.9199653,33.2912088 C82.2711823,33.2912088 82.5216789,33.3684745 82.6714627,33.5230082 C82.8212464,33.677542 82.8961372,33.9505475 82.8961372,34.342033 L82.8961372,51.4642857 L87.8699653,51.4642857 C88.2211823,51.4642857 88.4716789,51.5415514 88.6214627,51.6960852 C88.7712464,51.8506189 88.8461372,52.1236244 88.8461372,52.5151099 C88.8461372,52.9065954 88.7712464,53.1796009 88.6214627,53.3341346 C88.4716789,53.4886684 88.2211823,53.5659341 87.8699653,53.5659341 L75.7220486,53.5659341 C75.3708316,53.5659341 75.120335,53.4886684 74.9705512,53.3341346 C74.8207675,53.1796009 74.7458767,52.9065954 74.7458767,52.5151099 C74.7458767,52.1236244 74.8207675,51.8506189 74.9705512,51.6960852 C75.120335,51.5415514 75.3708316,51.4642857 75.7220486,51.4642857 L80.5719184,51.4642857 L80.5719184,35.3928571 Z M142.597569,14.53125 C142.680209,16.0868896 143.111476,17.2536019 143.891385,18.0314217 C144.671293,18.8092415 145.784324,19.1981456 147.230512,19.1981456 C148.273833,19.1981456 149.28615,19.0796715 150.267491,18.8427198 C151.248833,18.605768 152.095873,18.2812521 152.808637,17.8691621 C153.139194,17.6837216 153.415515,17.6682685 153.637609,17.8228022 C153.859702,17.9773359 154.03789,18.2194352 154.172179,18.5491071 C154.316798,18.8787791 154.347787,19.1749643 154.265148,19.4376717 C154.182508,19.7003791 153.970748,19.9192986 153.629861,20.0944368 C153.226995,20.2901796 152.780232,20.4704662 152.289562,20.6353022 C151.798891,20.8001382 151.277238,20.941792 150.724588,21.0602679 C150.171937,21.1787437 149.601218,21.2714626 149.012413,21.3384272 C148.423608,21.4053918 147.829647,21.4388736 147.230512,21.4388736 C146.094222,21.4388736 145.08707,21.2663135 144.209028,20.9211882 C143.330985,20.5760628 142.592408,20.0815623 141.993273,19.4376717 C141.394138,18.7937811 140.937046,18.0108219 140.621984,17.0887706 C140.306921,16.1667193 140.149392,15.1236322 140.149392,13.959478 C140.149392,12.8365328 140.332746,11.8140499 140.699457,10.8919986 C141.066169,9.96994731 141.57491,9.18183706 142.225694,8.52764423 C142.876479,7.8734514 143.653793,7.36864876 144.557661,7.01322115 C145.461528,6.65779355 146.455767,6.48008242 147.540408,6.48008242 C148.687028,6.48008242 149.699345,6.65779355 150.577387,7.01322115 C151.45543,7.36864876 152.19659,7.86057378 152.80089,8.48901099 C153.40519,9.1174482 153.872611,9.86435007 154.203168,10.729739 C154.533726,11.595128 154.729991,12.5429207 154.79197,13.5731456 C154.79197,13.9234221 154.71708,14.1706724 154.567296,14.3149038 C154.417512,14.4591353 154.167016,14.53125 153.815799,14.53125 L142.597569,14.53125 Z M147.540408,8.72081044 C146.249169,8.72081044 145.192951,9.0427509 144.371723,9.68664148 C143.550495,10.3305321 143.010765,11.2242388 142.752517,12.3677885 L152.219835,12.3677885 C152.002907,11.2036343 151.512243,10.3047765 150.74783,9.67118819 C149.983416,9.03759985 148.914286,8.72081044 147.540408,8.72081044 Z M138.341667,18.9972527 C138.692884,18.9972527 138.94338,19.0745185 139.093164,19.2290522 C139.242948,19.3835859 139.317839,19.6565914 139.317839,20.0480769 C139.317839,20.4395624 139.242948,20.7125679 139.093164,20.8671016 C138.94338,21.0216354 138.692884,21.0989011 138.341667,21.0989011 L135.877995,21.0989011 C135.526778,21.0989011 135.276281,21.0216354 135.126497,20.8671016 C134.976714,20.7125679 134.901823,20.4395624 134.901823,20.0480769 L134.901823,18.8118132 C134.261368,19.6462954 133.515043,20.2927518 132.662826,20.7512019 C131.810608,21.209652 130.868017,21.4388736 129.835026,21.4388736 C128.874344,21.4388736 127.985985,21.2766156 127.169922,20.9520948 C126.353859,20.6275739 125.648853,20.1614041 125.054883,19.5535714 C124.460913,18.9457387 123.993491,18.2039879 123.652604,17.3282967 C123.311717,16.4526055 123.141276,15.4584534 123.141276,14.3458104 C123.141276,13.2331675 123.311717,12.2390154 123.652604,11.3633242 C123.993491,10.487633 124.460913,9.74588216 125.054883,9.13804945 C125.648853,8.53021674 126.353859,8.06404695 127.169922,7.7395261 C127.985985,7.41500525 128.874344,7.25274725 129.835026,7.25274725 C130.868017,7.25274725 131.789948,7.46136467 132.600846,7.87860577 C133.411745,8.29584687 134.12708,8.89079284 134.746875,9.66346154 L134.746875,2.92582418 L131.616927,2.92582418 C131.26571,2.92582418 131.015213,2.84855846 130.86543,2.69402473 C130.715646,2.53949099 130.640755,2.26648547 130.640755,1.875 C130.640755,1.48351453 130.715646,1.21050901 130.86543,1.05597527 C131.015213,0.901441535 131.26571,0.824175824 131.616927,0.824175824 L136.094922,0.824175824 C136.446139,0.824175824 136.696636,0.901441535 136.846419,1.05597527 C136.996203,1.21050901 137.071094,1.48351453 137.071094,1.875 L137.071094,18.9972527 L138.341667,18.9972527 Z M134.746875,14.3458104 C134.746875,13.583444 134.628083,12.9035057 134.390495,12.3059753 C134.152907,11.7084448 133.822355,11.2062177 133.398828,10.7992788 C132.975302,10.39234 132.471726,10.0807016 131.888086,9.8643544 C131.304446,9.64800716 130.671748,9.53983516 129.989974,9.53983516 C129.28754,9.53983516 128.66259,9.65830925 128.115104,9.89526099 C127.567619,10.1322127 127.107945,10.4644553 126.736068,10.8919986 C126.364191,11.319542 126.080123,11.8269201 125.883854,12.4141484 C125.687586,13.0013766 125.589453,13.6452575 125.589453,14.3458104 C125.589453,15.0463634 125.687586,15.6902443 125.883854,16.2774725 C126.080123,16.8647007 126.364191,17.3720789 126.736068,17.7996223 C127.107945,18.2271656 127.567619,18.5594082 128.115104,18.7963599 C128.66259,19.0333116 129.28754,19.1517857 129.989974,19.1517857 C130.671748,19.1517857 131.304446,19.0436137 131.888086,18.8272665 C132.471726,18.6109192 132.975302,18.2992809 133.398828,17.892342 C133.822355,17.4854032 134.152907,16.9831761 134.390495,16.3856456 C134.628083,15.7881151 134.746875,15.1081769 134.746875,14.3458104 Z M114.505512,8.9217033 L110.58533,8.9217033 C110.234113,8.9217033 109.983616,8.84443759 109.833832,8.68990385 C109.684049,8.53537011 109.609158,8.26236459 109.609158,7.87087912 C109.609158,7.47939365 109.684049,7.20638814 109.833832,7.0518544 C109.983616,6.89732066 110.234113,6.82005495 110.58533,6.82005495 L115.853559,6.82005495 C116.204776,6.82005495 116.455273,6.89732066 116.605056,7.0518544 C116.75484,7.20638814 116.829731,7.47939365 116.829731,7.87087912 L116.829731,18.9972527 L121.803559,18.9972527 C122.154776,18.9972527 122.405273,19.0745185 122.555056,19.2290522 C122.70484,19.3835859 122.779731,19.6565914 122.779731,20.0480769 C122.779731,20.4395624 122.70484,20.7125679 122.555056,20.8671016 C122.405273,21.0216354 122.154776,21.0989011 121.803559,21.0989011 L109.655642,21.0989011 C109.304425,21.0989011 109.053929,21.0216354 108.904145,20.8671016 C108.754361,20.7125679 108.67947,20.4395624 108.67947,20.0480769 C108.67947,19.6565914 108.754361,19.3835859 108.904145,19.2290522 C109.053929,19.0745185 109.304425,18.9972527 109.655642,18.9972527 L114.505512,18.9972527 L114.505512,8.9217033 Z M116.829731,3.04945055 C116.829731,3.41002928 116.731598,3.66758164 116.53533,3.82211538 C116.339062,3.97664912 115.946531,4.05391484 115.357726,4.05391484 C114.768921,4.05391484 114.37639,3.97664912 114.180122,3.82211538 C113.983853,3.66758164 113.88572,3.41002928 113.88572,3.04945055 L113.88572,1.04052198 C113.88572,0.679943252 113.983853,0.422390883 114.180122,0.267857143 C114.37639,0.113323403 114.768921,0.0360576923 115.357726,0.0360576923 C115.946531,0.0360576923 116.339062,0.113323403 116.53533,0.267857143 C116.731598,0.422390883 116.829731,0.679943252 116.829731,1.04052198 L116.829731,3.04945055 Z M105.818099,18.9972527 C106.169316,18.9972527 106.419813,19.0745185 106.569596,19.2290522 C106.71938,19.3835859 106.794271,19.6565914 106.794271,20.0480769 C106.794271,20.4395624 106.71938,20.7125679 106.569596,20.8671016 C106.419813,21.0216354 106.169316,21.0989011 105.818099,21.0989011 L103.354427,21.0989011 C103.00321,21.0989011 102.752713,21.0242109 102.60293,20.8748283 C102.453146,20.7254457 102.378255,20.4550157 102.378255,20.0635302 L102.378255,18.1936813 C101.696481,19.254813 100.90109,20.0609519 99.9920573,20.6121223 C99.083025,21.1632926 98.0965331,21.4388736 97.0325521,21.4388736 C96.3197881,21.4388736 95.6793431,21.3203995 95.1111979,21.0834478 C94.5430527,20.8464961 94.0601365,20.511678 93.6624349,20.0789835 C93.2647333,19.646289 92.9600054,19.1183067 92.7482422,18.4950206 C92.536479,17.8717345 92.430599,17.1737676 92.430599,16.4010989 L92.430599,8.9217033 L91.160026,8.9217033 C90.808809,8.9217033 90.5583124,8.84443759 90.4085286,8.68990385 C90.2587449,8.53537011 90.1838542,8.26236459 90.1838542,7.87087912 C90.1838542,7.47939365 90.2587449,7.20638814 90.4085286,7.0518544 C90.5583124,6.89732066 90.808809,6.82005495 91.160026,6.82005495 L93.7786458,6.82005495 C94.1298629,6.82005495 94.3803595,6.89732066 94.5301432,7.0518544 C94.679927,7.20638814 94.7548177,7.47939365 94.7548177,7.87087912 L94.7548177,16.1692995 C94.7548177,16.6122962 94.8064665,17.0166534 94.9097656,17.3823832 C95.0130648,17.7481131 95.1680111,18.062327 95.3746094,18.3250343 C95.5812076,18.5877417 95.842034,18.7912081 96.1570964,18.9354396 C96.4721587,19.0796711 96.8414475,19.1517857 97.264974,19.1517857 C97.9260884,19.1517857 98.5562036,19.0075564 99.1553385,18.7190934 C99.7544735,18.4306304 100.281291,18.0288487 100.735807,17.5137363 C101.190323,16.9986238 101.551865,16.3856492 101.820443,15.674794 C102.08902,14.9639388 102.223307,14.1861306 102.223307,13.3413462 L102.223307,8.9217033 L100.023047,8.9217033 C99.6718298,8.9217033 99.4213332,8.84443759 99.2715495,8.68990385 C99.1217657,8.53537011 99.046875,8.26236459 99.046875,7.87087912 C99.046875,7.47939365 99.1217657,7.20638814 99.2715495,7.0518544 C99.4213332,6.89732066 99.6718298,6.82005495 100.023047,6.82005495 L103.571354,6.82005495 C103.922571,6.82005495 104.173068,6.89732066 104.322852,7.0518544 C104.472635,7.20638814 104.547526,7.47939365 104.547526,7.87087912 L104.547526,18.9972527 L105.818099,18.9972527 Z M74.9834635,24.3595467 C75.6962275,24.6583119 76.445135,24.8772314 77.2302083,25.0163118 C78.0152817,25.1553922 78.7848487,25.2249313 79.5389323,25.2249313 C80.2310364,25.2249313 80.8327448,25.134788 81.3440755,24.9544986 C81.8554062,24.7742093 82.2789263,24.5166569 82.6146484,24.1818338 C82.9503706,23.8470107 83.2008672,23.4478045 83.3661458,22.9842033 C83.5314244,22.5206021 83.6140625,22.0054973 83.6140625,21.4388736 L83.6140625,18.2554945 C82.9942677,19.0281632 82.278932,19.6231092 81.4680339,20.0403503 C80.6571357,20.4575914 79.7352048,20.6662088 78.7022135,20.6662088 C77.7415317,20.6662088 76.8531725,20.5039508 76.0371094,20.1794299 C75.2210463,19.8549091 74.5160403,19.3887393 73.9220703,18.7809066 C73.3281003,18.1730739 72.8606788,17.4313231 72.5197917,16.5556319 C72.1789045,15.6799407 72.0084635,14.6857885 72.0084635,13.5731456 C72.0084635,12.4605027 72.1789045,11.4663505 72.5197917,10.5906593 C72.8606788,9.71496815 73.3281003,8.97321732 73.9220703,8.36538462 C74.5160403,7.75755191 75.2210463,7.29138212 76.0371094,6.96686126 C76.8531725,6.64234041 77.7415317,6.48008242 78.7022135,6.48008242 C79.7352048,6.48008242 80.6777952,6.70930403 81.530013,7.16775412 C82.3822308,7.62620422 83.1285558,8.27266066 83.7690104,9.10714286 L83.7690104,7.87087912 C83.7690104,7.47939365 83.8439012,7.20638814 83.9936849,7.0518544 C84.1434686,6.89732066 84.3939653,6.82005495 84.7451823,6.82005495 L87.2088542,6.82005495 C87.5600712,6.82005495 87.8105678,6.89732066 87.9603516,7.0518544 C88.1101353,7.20638814 88.185026,7.47939365 88.185026,7.87087912 C88.185026,8.26236459 88.1101353,8.53537011 87.9603516,8.68990385 C87.8105678,8.84443759 87.5600712,8.9217033 87.2088542,8.9217033 L85.9382813,8.9217033 L85.9382813,21.6397665 C85.9382813,22.5669689 85.7962471,23.393712 85.5121745,24.1200206 C85.2281019,24.8463292 84.8123291,25.4593038 84.2648438,25.9589629 C83.7173584,26.458622 83.0459241,26.842375 82.2505208,27.1102335 C81.4551176,27.378092 80.5512637,27.5120192 79.5389323,27.5120192 C78.6402299,27.5120192 77.7363761,27.4347535 76.8273438,27.2802198 C75.9183114,27.125686 75.0557766,26.8938889 74.2397135,26.5848214 C73.9608059,26.4714967 73.7774527,26.3015121 73.6896484,26.0748626 C73.6018442,25.8482132 73.6250861,25.5391503 73.759375,25.1476648 C73.8936639,24.7561794 74.0666873,24.498627 74.2784505,24.375 C74.4902137,24.251373 74.7252157,24.246222 74.9834635,24.3595467 Z M83.6140625,13.5731456 C83.6140625,12.8107792 83.4952703,12.1308409 83.2576823,11.5333104 C83.0200943,10.93578 82.689542,10.4335529 82.2660156,10.026614 C81.8424892,9.61967516 81.3389135,9.3080368 80.7552734,9.09168956 C80.1716334,8.87534232 79.5389357,8.76717033 78.8571615,8.76717033 C78.1547274,8.76717033 77.529777,8.88564442 76.9822917,9.12259615 C76.4348063,9.35954789 75.9751321,9.69179044 75.6032552,10.1193338 C75.2313783,10.5468771 74.94731,11.0542553 74.7510417,11.6414835 C74.5547733,12.2287117 74.4566406,12.8725927 74.4566406,13.5731456 C74.4566406,14.2736986 74.5547733,14.9175795 74.7510417,15.5048077 C74.94731,16.0920359 75.2313783,16.5994141 75.6032552,17.0269574 C75.9751321,17.4545008 76.4348063,17.7867433 76.9822917,18.0236951 C77.529777,18.2606468 78.1547274,18.3791209 78.8571615,18.3791209 C79.5389357,18.3791209 80.1716334,18.2709489 80.7552734,18.0546016 C81.3389135,17.8382544 81.8424892,17.526616 82.2660156,17.1196772 C82.689542,16.7127383 83.0200943,16.2105112 83.2576823,15.6129808 C83.4952703,15.0154503 83.6140625,14.3355121 83.6140625,13.5731456 Z M35.3891059,20.4344093 C35.3891059,20.7949881 35.3038854,21.0525404 35.1334418,21.2070742 C34.9629983,21.3616079 34.6608529,21.4388736 34.2269965,21.4388736 C33.7931402,21.4388736 33.4909948,21.3616079 33.3205512,21.2070742 C33.1501077,21.0525404 33.0648872,20.7949881 33.0648872,20.4344093 L33.0648872,16.7256181 C33.0648872,16.3650394 33.1501077,16.107487 33.3205512,15.9529533 C33.4909948,15.7984196 33.7931402,15.7211538 34.2269965,15.7211538 C34.4542546,15.7211538 34.6298605,15.7726643 34.7538194,15.8756868 C34.8777784,15.9787093 34.981076,16.1383918 35.0637153,16.354739 C35.445922,17.3540572 36.0708724,18.0777794 36.9385851,18.5259272 C37.8062977,18.974075 38.9580657,19.1981456 40.3939236,19.1981456 C41.6335131,19.1981456 42.5631913,18.9792261 43.1829861,18.5413805 C43.8027809,18.1035349 44.1126736,17.5291931 44.1126736,16.8183379 C44.1126736,16.4474569 43.9938814,16.1512717 43.7562934,15.9297734 C43.5187054,15.708275 43.1984829,15.5305639 42.7956163,15.3966346 C42.3411002,15.2421009 41.8142825,15.1287778 41.2151476,15.0566621 C40.6160126,14.9845463 39.9858974,14.9124317 39.324783,14.8403159 C38.6636686,14.7682002 38.0051465,14.6754813 37.349197,14.5621566 C36.6932476,14.4488319 36.0863743,14.2839983 35.528559,14.0676511 C35.177342,13.9337219 34.8571195,13.7688883 34.5678819,13.5731456 C34.2786444,13.3774029 34.0281478,13.1456057 33.8163845,12.8777473 C33.6046213,12.6098888 33.4393452,12.3008259 33.3205512,11.9505495 C33.2017572,11.600273 33.1423611,11.1984913 33.1423611,10.7451923 C33.1423611,10.0549416 33.2818128,9.44454249 33.5607205,8.91397665 C33.8396281,8.38341081 34.2244116,7.93784521 34.7150825,7.57726648 C35.2057533,7.21668776 35.7842198,6.94368225 36.4504991,6.75824176 C37.1167785,6.57280127 37.842444,6.48008242 38.6275174,6.48008242 C39.6605086,6.48008242 40.5876044,6.63203832 41.4088325,6.93595467 C42.2300605,7.23987103 42.9350665,7.65453034 43.5238715,8.17994505 L43.5238715,7.4845467 C43.5238715,7.12396798 43.609092,6.86641561 43.7795356,6.71188187 C43.9499792,6.55734813 44.2521246,6.48008242 44.6859809,6.48008242 C45.1198372,6.48008242 45.4219827,6.55734813 45.5924262,6.71188187 C45.7628698,6.86641561 45.8480903,7.12396798 45.8480903,7.4845467 L45.8480903,10.4206731 C45.8480903,10.7812518 45.7628698,11.0388042 45.5924262,11.1933379 C45.4219827,11.3478717 45.1198372,11.4251374 44.6859809,11.4251374 C44.3347639,11.4251374 44.0868497,11.2912101 43.9422309,11.0233516 C43.7046429,10.5803549 43.4179921,10.2094795 43.08227,9.91071429 C42.7465478,9.61194906 42.3591819,9.37500088 41.9201606,9.19986264 C41.4811393,9.0247244 40.9982231,8.90109926 40.4713976,8.82898352 C39.944572,8.75686777 39.3816002,8.72081044 38.7824653,8.72081044 C37.7804637,8.72081044 36.9979846,8.89594605 36.4350043,9.24622253 C35.8720241,9.596499 35.5905382,10.0961506 35.5905382,10.7451923 C35.5905382,11.0851665 35.7015831,11.358172 35.9236762,11.564217 C36.1457693,11.770262 36.4530796,11.9350955 36.8456163,12.0587225 C37.2794727,12.202954 37.7856308,12.3085505 38.3641059,12.3755151 C38.942581,12.4424797 39.5520367,12.5094433 40.1924913,12.576408 C40.8329459,12.6433726 41.4785558,12.7257893 42.1293403,12.8236607 C42.7801248,12.9215321 43.3844156,13.073488 43.9422309,13.279533 C44.3244377,13.4237645 44.6756494,13.5963245 44.9958767,13.7972184 C45.316104,13.9981123 45.5924251,14.2402115 45.8248481,14.5235234 C46.0572711,14.8068352 46.2380419,15.1365022 46.3671658,15.5125343 C46.4962897,15.8885664 46.5608507,16.3238299 46.5608507,16.8183379 C46.5608507,17.5085886 46.4291463,18.1370164 46.1657335,18.7036401 C45.9023207,19.2702638 45.5149548,19.7570378 45.0036241,20.1639766 C44.4922935,20.5709155 43.8621782,20.8851294 43.1132595,21.1066277 C42.3643409,21.3281261 41.5095534,21.4388736 40.5488715,21.4388736 C39.422911,21.4388736 38.4390016,21.2843422 37.5971137,20.9752747 C36.7552258,20.6662072 36.0192306,20.1974619 35.3891059,19.5690247 L35.3891059,20.4344093 Z M19.6670573,20.4344093 C19.6670573,20.7949881 19.5818368,21.0525404 19.4113932,21.2070742 C19.2409497,21.3616079 18.9388043,21.4388736 18.5049479,21.4388736 C18.0710916,21.4388736 17.7689462,21.3616079 17.5985026,21.2070742 C17.428059,21.0525404 17.3428385,20.7949881 17.3428385,20.4344093 L17.3428385,16.7256181 C17.3428385,16.3650394 17.428059,16.107487 17.5985026,15.9529533 C17.7689462,15.7984196 18.0710916,15.7211538 18.5049479,15.7211538 C18.732206,15.7211538 18.9078119,15.7726643 19.0317708,15.8756868 C19.1557298,15.9787093 19.2590274,16.1383918 19.3416667,16.354739 C19.7238734,17.3540572 20.3488238,18.0777794 21.2165365,18.5259272 C22.0842491,18.974075 23.2360171,19.1981456 24.671875,19.1981456 C25.9114645,19.1981456 26.8411427,18.9792261 27.4609375,18.5413805 C28.0807323,18.1035349 28.390625,17.5291931 28.390625,16.8183379 C28.390625,16.4474569 28.2718328,16.1512717 28.0342448,15.9297734 C27.7966568,15.708275 27.4764343,15.5305639 27.0735677,15.3966346 C26.6190515,15.2421009 26.0922339,15.1287778 25.493099,15.0566621 C24.893964,14.9845463 24.2638488,14.9124317 23.6027344,14.8403159 C22.94162,14.7682002 22.2830979,14.6754813 21.6271484,14.5621566 C20.971199,14.4488319 20.3643257,14.2839983 19.8065104,14.0676511 C19.4552934,13.9337219 19.1350709,13.7688883 18.8458333,13.5731456 C18.5565958,13.3774029 18.3060991,13.1456057 18.0943359,12.8777473 C17.8825727,12.6098888 17.7172966,12.3008259 17.5985026,11.9505495 C17.4797086,11.600273 17.4203125,11.1984913 17.4203125,10.7451923 C17.4203125,10.0549416 17.5597642,9.44454249 17.8386719,8.91397665 C18.1175795,8.38341081 18.502363,7.93784521 18.9930339,7.57726648 C19.4837047,7.21668776 20.0621711,6.94368225 20.7284505,6.75824176 C21.3947299,6.57280127 22.1203954,6.48008242 22.9054687,6.48008242 C23.93846,6.48008242 24.8655558,6.63203832 25.6867839,6.93595467 C26.5080119,7.23987103 27.2130179,7.65453034 27.8018229,8.17994505 L27.8018229,7.4845467 C27.8018229,7.12396798 27.8870434,6.86641561 28.057487,6.71188187 C28.2279305,6.55734813 28.530076,6.48008242 28.9639323,6.48008242 C29.3977886,6.48008242 29.699934,6.55734813 29.8703776,6.71188187 C30.0408212,6.86641561 30.1260417,7.12396798 30.1260417,7.4845467 L30.1260417,10.4206731 C30.1260417,10.7812518 30.0408212,11.0388042 29.8703776,11.1933379 C29.699934,11.3478717 29.3977886,11.4251374 28.9639323,11.4251374 C28.6127153,11.4251374 28.3648011,11.2912101 28.2201823,11.0233516 C27.9825943,10.5803549 27.6959435,10.2094795 27.3602214,9.91071429 C27.0244992,9.61194906 26.6371333,9.37500088 26.198112,9.19986264 C25.7590907,9.0247244 25.2761745,8.90109926 24.749349,8.82898352 C24.2225234,8.75686777 23.6595516,8.72081044 23.0604167,8.72081044 C22.0584151,8.72081044 21.275936,8.89594605 20.7129557,9.24622253 C20.1499755,9.596499 19.8684896,10.0961506 19.8684896,10.7451923 C19.8684896,11.0851665 19.9795345,11.358172 20.2016276,11.564217 C20.4237207,11.770262 20.731031,11.9350955 21.1235677,12.0587225 C21.557424,12.202954 22.0635822,12.3085505 22.6420573,12.3755151 C23.2205324,12.4424797 23.8299881,12.5094433 24.4704427,12.576408 C25.1108973,12.6433726 25.7565072,12.7257893 26.4072917,12.8236607 C27.0580762,12.9215321 27.662367,13.073488 28.2201823,13.279533 C28.6023891,13.4237645 28.9536008,13.5963245 29.2738281,13.7972184 C29.5940554,13.9981123 29.8703764,14.2402115 30.1027995,14.5235234 C30.3352225,14.8068352 30.5159933,15.1365022 30.6451172,15.5125343 C30.7742411,15.8885664 30.8388021,16.3238299 30.8388021,16.8183379 C30.8388021,17.5085886 30.7070977,18.1370164 30.4436849,18.7036401 C30.1802721,19.2702638 29.7929062,19.7570378 29.2815755,20.1639766 C28.7702448,20.5709155 28.1401296,20.8851294 27.3912109,21.1066277 C26.6422923,21.3281261 25.7875048,21.4388736 24.8268229,21.4388736 C23.7008624,21.4388736 22.716953,21.2843422 21.8750651,20.9752747 C21.0331772,20.6662072 20.297182,20.1974619 19.6670573,19.5690247 L19.6670573,20.4344093 Z M12.4464844,11.9660027 C12.4464844,11.5024015 12.3535166,11.0748646 12.1675781,10.6833791 C11.9816397,10.2918936 11.7053187,9.95450004 11.3386068,9.67118819 C10.9718949,9.38787633 10.519968,9.16638129 9.9828125,9.00669643 C9.44565704,8.84701156 8.82070669,8.76717033 8.10794271,8.76717033 C7.35385908,8.76717033 6.65918286,8.89594651 6.02389323,9.15350275 C5.38860359,9.41105898 4.84370887,9.7716323 4.38919271,10.2352335 C3.93467655,10.6988347 3.5782999,11.2474213 3.32005208,11.8810096 C3.06180426,12.5145979 2.93268229,13.2074138 2.93268229,13.959478 C2.93268229,14.7115422 3.05147451,15.4043581 3.2890625,16.0379464 C3.52665049,16.6715348 3.86495006,17.2201213 4.30397135,17.6837225 C4.74299265,18.1473237 5.27239273,18.5078971 5.8921875,18.7654533 C6.51198227,19.0230095 7.19891116,19.1517857 7.95299479,19.1517857 C8.90334677,19.1517857 9.82269521,19.0075564 10.7110677,18.7190934 C11.5994402,18.4306304 12.4154911,18.0030935 13.1592448,17.4364698 C13.4278225,17.2304248 13.6809016,17.1531591 13.9184896,17.2046703 C14.1560776,17.2561816 14.3833322,17.4622235 14.6002604,17.8228022 C14.7758689,18.1009629 14.8507597,18.3894216 14.8249349,18.6881868 C14.7991101,18.986952 14.6364164,19.2445044 14.336849,19.4608516 C13.500126,20.0789866 12.5239639,20.5631851 11.4083333,20.9134615 C10.2927028,21.263738 9.14093476,21.4388736 7.95299479,21.4388736 C6.81670439,21.4388736 5.78889349,21.2508604 4.86953125,20.8748283 C3.95016901,20.4987962 3.16510742,19.9759649 2.51432292,19.3063187 C1.86353841,18.6366725 1.36254516,17.8459867 1.01132812,16.9342376 C0.660111091,16.0224886 0.484505208,15.030912 0.484505208,13.959478 C0.484505208,12.8880441 0.66527597,11.8964675 1.02682292,10.9847184 C1.38836986,10.0729693 1.89711044,9.28228357 2.5530599,8.61263736 C3.20900936,7.94299116 3.99407095,7.42015985 4.90826823,7.04412775 C5.82246551,6.66809565 6.83736421,6.48008242 7.95299479,6.48008242 C8.89301685,6.48008242 9.74522187,6.64749146 10.5096354,6.98231456 C11.274049,7.31713766 11.9196588,7.79360955 12.4464844,8.41174451 L12.4464844,7.4845467 C12.4464844,7.12396798 12.5317049,6.86641561 12.7021484,6.71188187 C12.872592,6.55734813 13.1747374,6.48008242 13.6085938,6.48008242 C14.0424501,6.48008242 14.3445955,6.55734813 14.5150391,6.71188187 C14.6854826,6.86641561 14.7707031,7.12396798 14.7707031,7.4845467 L14.7707031,11.9660027 C14.7707031,12.3265815 14.6854826,12.5841338 14.5150391,12.7386676 C14.3445955,12.8932013 14.0424501,12.970467 13.6085938,12.970467 C13.1747374,12.970467 12.872592,12.8932013 12.7021484,12.7386676 C12.5317049,12.5841338 12.4464844,12.3265815 12.4464844,11.9660027 L12.4464844,11.9660027 Z" class="logo__character" sketch:type="MSShapeGroup"></path>
        </g>
    </g>
</svg>
